<?xml version="1.0" encoding="UTF-8" standalone="no"?>
<!-- Created with Inkscape (http://www.inkscape.org/) -->

<svg
   xmlns:dc="http://purl.org/dc/elements/1.1/"
   xmlns:cc="http://creativecommons.org/ns#"
   xmlns:rdf="http://www.w3.org/1999/02/22-rdf-syntax-ns#"
   xmlns:svg="http://www.w3.org/2000/svg"
   xmlns="http://www.w3.org/2000/svg"
   xmlns:xlink="http://www.w3.org/1999/xlink"
   xmlns:sodipodi="http://sodipodi.sourceforge.net/DTD/sodipodi-0.dtd"
   xmlns:inkscape="http://www.inkscape.org/namespaces/inkscape"
   width="744.09448819"
   height="1052.3622047"
   id="svg2"
   version="1.1"
   inkscape:version="0.48.4 r9939"
   sodipodi:docname="STORY_1 FINAL.svg">
  <defs
     id="defs4">
    <linearGradient
       inkscape:collect="always"
       id="linearGradient3999">
      <stop
         style="stop-color:#52310b;stop-opacity:1"
         offset="0"
         id="stop4001" />
      <stop
         style="stop-color:#f3dabe;stop-opacity:1"
         offset="1"
         id="stop4003" />
    </linearGradient>
    <linearGradient
       inkscape:collect="always"
       xlink:href="#linearGradient3999"
       id="linearGradient4005"
       x1="415.7045"
       y1="477.28949"
       x2="331.53473"
       y2="433.34784"
       gradientUnits="userSpaceOnUse" />
  </defs>
  <sodipodi:namedview
     id="base"
     pagecolor="#ffffff"
     bordercolor="#666666"
     borderopacity="1.0"
     inkscape:pageopacity="0.0"
     inkscape:pageshadow="2"
     inkscape:zoom="1.979899"
     inkscape:cx="383.33111"
     inkscape:cy="531.52865"
     inkscape:document-units="px"
     inkscape:current-layer="layer2"
     showgrid="false"
     inkscape:window-width="1920"
     inkscape:window-height="1017"
     inkscape:window-x="-8"
     inkscape:window-y="-8"
     inkscape:window-maximized="1" />
  <metadata
     id="metadata7">
    <rdf:RDF>
      <cc:Work
         rdf:about="">
        <dc:format>image/svg+xml</dc:format>
        <dc:type
           rdf:resource="http://purl.org/dc/dcmitype/StillImage" />
        <dc:title></dc:title>
      </cc:Work>
    </rdf:RDF>
  </metadata>
  <g
     inkscape:label="Sketch"
     inkscape:groupmode="layer"
     id="layer1"
     sodipodi:insensitive="true">
    <image
       y="-712.91241"
       x="99.238312"
       id="image2993"
       xlink:href="file:///C:/Users/stefano/Desktop/IMG_2072.JPG"
       height="666.62341"
       width="888.83124"
       transform="matrix(0.00600258,0.99998198,-0.99998198,0.00600258,0,0)" />
  </g>
  <g
     inkscape:groupmode="layer"
     id="layer2"
     inkscape:label="ink">
    <path
       style="color:#000000;fill:#0c350d;fill-opacity:1;fill-rule:evenodd;stroke:none;stroke-width:1px;marker:none;visibility:visible;display:inline;overflow:visible;enable-background:accumulate"
       d="m 420.71429,310.57647 -26.78572,-5 -42.14286,1.42857 c 0,0 -30.35714,3.92857 -32.14285,4.64286 -1.78572,0.71428 -33.92857,8.57142 -33.92857,8.57142 l -27.5,12.85715 -27.85715,18.92857 -22.14285,18.92857 -21.07143,27.85714 -18.92857,38.57143 -10.71429,36.78572 -2.5,42.14285 6.07143,42.14286 3.21428,17.5 12.14286,49.64286 L 190,654.1479 l 17.85714,22.5 31.42857,26.07142 21.78572,12.5 43.57143,11.42858 40,4.64285 43.21428,-3.57143 L 425,716.6479 l 34.64286,-19.64286 31.78571,-27.5 24.64286,-35.71429 17.5,-41.78571 6.78571,-33.57143 1.07143,-38.21429 0.71429,-21.07142 -3.92857,-23.21429 -16.78572,-34.64286 -31.07143,-58.57143 -21.42857,-18.57142 4.64286,-9.64286 -30.35714,-30.71429 z"
       id="path3995"
       inkscape:connector-curvature="0" />
    <path
       style="color:#000000;fill:url(#linearGradient4005);fill-opacity:1;fill-rule:evenodd;stroke:none;stroke-width:1px;marker:none;visibility:visible;display:inline;overflow:visible;enable-background:accumulate"
       d="m 335.35714,450.93361 -8.21428,1.07143 -2.85715,6.78571 c 0,0 3.87984,4.94796 5.71429,7.5 2.60174,3.61947 4.52456,7.75233 7.5,11.07143 4.17173,4.65356 9.93272,7.65839 14.28571,12.14286 2.65467,2.73485 6.00581,5.29075 7.14286,8.92857 1.0324,3.30299 0.3161,7.05352 -0.71428,10.35714 -1.31916,4.22948 -3.23204,8.7828 -6.78572,11.42857 -3.5434,2.63811 -12.85714,3.21429 -12.85714,3.21429 0,0 4.97333,6.03878 7.14286,9.28571 2.51851,3.76922 6.78571,11.78572 6.78571,11.78572 0,0 3.50132,-7.28969 6.07143,-10.35714 3.41666,-4.07782 7.4509,-7.84962 12.14286,-10.35715 5.01889,-2.68226 10.85121,-3.5129 16.42857,-4.64285 3.76273,-0.76231 11.42857,-1.42858 11.42857,-1.42858 0,0 -1.91478,-2.2467 -1.78572,-3.57142 0.32095,-3.29427 3.33595,-5.99372 6.07143,-7.85715 5.63569,-3.83907 12.90812,-4.64528 19.64286,-5.71428 7.411,-1.17634 15.00993,-1.16767 22.5,-0.71429 4.6889,0.28382 13.92857,2.14286 13.92857,2.14286 L 465,495.57647 c 0,0 -4.44586,-1.75362 -6.78571,-2.14286 -4.93362,-0.82072 -9.99972,-0.25044 -15,-0.35714 -6.30921,-0.13463 -12.61821,-0.29762 -18.92858,-0.35715 -2.38084,-0.0225 -4.79009,-0.36528 -7.14285,0 -2.71589,0.42166 -5.11052,2.59954 -7.85715,2.5 -1.92201,-0.0697 -4.16871,-0.63069 -5.35714,-2.14285 -1.56048,-1.98556 -1.78986,-5.07896 -1.07143,-7.5 0.72002,-2.42641 2.91161,-4.28442 5,-5.71429 3.44924,-2.36162 7.71105,-3.35213 11.78572,-4.28571 5.71553,-1.30953 11.63931,-1.60033 17.5,-1.78572 3.09598,-0.0979 6.19202,0.20297 9.28571,0.35715 5.83701,0.2909 11.66625,1.4217 17.5,1.07142 8.57745,-0.51503 17.24341,-1.81351 25.35715,-4.64285 3.82191,-1.33274 7.37827,-3.42208 10.71428,-5.71429 3.89517,-2.67642 8.01566,-5.40589 10.71429,-9.28571 1.1616,-1.67003 2.14285,-5.71429 2.14285,-5.71429 l -3.57142,-1.78571 c 0,0 -3.41445,2.52192 -5,3.92857 -3.27444,2.905 -5.61536,6.90044 -9.28572,9.28571 -4.17102,2.71063 -9.0797,4.24656 -13.92857,5.35715 -4.19202,0.96014 -8.58377,0.58854 -12.85714,1.07142 -3.34588,0.37807 -6.64512,1.71613 -10,1.42858 -4.23864,-0.3633 -7.94903,-3.21454 -12.14286,-3.92858 -4.81314,-0.81949 -9.76415,-0.54707 -14.64286,-0.35714 -4.66368,0.18156 -9.26487,1.60972 -13.92857,1.42857 -2.65998,-0.10332 -6.50088,0.862 -7.85714,-1.42857 -1.72624,-2.91542 1.34913,-6.81429 3.21428,-9.64286 0.78914,-1.19676 1.9445,-2.19183 3.21429,-2.85714 4.01541,-2.10388 8.94355,-1.69417 13.21428,-3.21428 5.46805,-1.94629 10.91362,-4.23791 15.71429,-7.5 5.64358,-3.83486 10.14488,-9.13442 15,-13.92858 2.45658,-2.42573 7.14286,-7.5 7.14286,-7.5 l -8.57143,-2.5 c 0,0 -4.38024,7.20187 -7.14286,10.35715 -3.38668,3.86804 -7.13226,7.53347 -11.42857,10.35714 -3.60623,2.37013 -7.56815,4.44358 -11.78571,5.35714 -3.37413,0.73087 -7.44219,1.84985 -10.35715,0 -1.88852,-1.19847 -2.75173,-3.83721 -2.85714,-6.07143 -0.14907,-3.15966 0.98119,-6.68828 3.21429,-8.92857 2.95113,-2.96063 7.73193,-3.26525 11.78571,-4.28571 6.41635,-1.61519 19.64286,-2.85714 19.64286,-2.85714 l 2.14286,-6.07143 -5.71429,-2.14286 c 0,0 -7.63756,2.32327 -11.42857,3.57143 -3.11115,1.02432 -6.01129,3.1333 -9.28572,3.21428 -2.97528,0.0736 -6.61811,0.15074 -8.57142,-2.49999 -2.5864,-3.50987 -2.25253,-5.77781 -1.34971,-10.36467 0.90281,-4.58686 1.30315,-11.1355 2.42113,-15.34962 1.51591,-5.71411 4.63208,-10.9019 7.5,-16.07143 2.75522,-4.96638 9.28572,-14.28571 9.28572,-14.28571 l -7.5,-1.07143 c 0,0 -4.11905,5.66501 -6.07143,8.57143 -2.59659,3.86541 -5.54422,7.55977 -7.5,11.78571 -2.19832,4.75 -3.26213,9.95136 -4.64286,15 -0.67793,2.47885 -1.78571,7.5 -1.78571,7.5 0,0 -0.44682,-12.14236 -0.35715,-18.21429 0.10737,-7.26989 1.07143,-21.78571 1.07143,-21.78571 l -10.71428,-0.71429 c 0,0 1.31991,9.97855 1.42857,15 0.14958,6.91238 -0.62074,13.815 -1.07143,20.71429 -0.2958,4.52823 -0.68106,9.05037 -1.07143,13.57143 -0.32915,3.81204 0.20724,7.82232 -1.07143,11.42857 -0.86066,2.42733 -1.98541,5.27044 -4.28571,6.42857 -4.25858,2.14406 -9.71664,0.64807 -14.28572,-0.71428 -5.41991,-1.61603 -10.16622,-5.11503 -14.64285,-8.57143 -2.39869,-1.85202 -6.42857,-6.42857 -6.42857,-6.42857 l -7.85715,3.92857 c 0,0 6.50283,7.36012 10.35715,10.35714 4.0455,3.14568 8.51996,5.80173 13.21428,7.85714 4.20948,1.84312 9.53309,1.17802 13.21429,3.92857 2.27485,1.69974 4.28229,4.32611 4.64285,7.14286 0.66918,5.22781 -2.77084,10.22416 -5,15 -2.30575,4.93993 -4.04803,10.88583 -8.57142,13.92857 -3.00425,2.02086 -7.11658,2.19301 -10.71429,1.78572 -4.34954,-0.49241 -8.59364,-2.43796 -12.14286,-5 -4.58575,-3.31027 -7.61175,-8.38305 -11.07143,-12.85715 -2.30287,-2.9781 -6.42857,-9.28571 -6.42857,-9.28571 z"
       id="path3997"
       inkscape:connector-curvature="0"
       sodipodi:nodetypes="cccaaaaaacacaaacaaaaccaaaaaaaaaaaaaaaccaaaaaaaaaaaaaaccaaaaaaacccaasssaccaaacaccaaaaaaaccaaaaaaaaac" />
    <path
       style="color:#000000;fill:#e2ce94;fill-opacity:1;stroke:none;stroke-width:2.50000000000000000;marker:none;visibility:visible;display:inline;overflow:visible;enable-background:accumulate"
       d="m 311.07143,528.79484 c -6.94163,-1.87844 -14.24639,-2.13786 -21.42857,-2.5 -7.72919,-0.38972 -15.5274,-0.53956 -23.21429,0.35714 -7.14385,0.83335 -14.32477,2.15056 -21.07143,4.64286 -7.34405,2.71298 -14.17753,6.76258 -20.71428,11.07143 -5.72801,3.77575 -10.44632,8.92974 -16.07143,12.85714 -4.33571,3.02715 -8.67167,6.22572 -13.57143,8.21429 -2.94341,1.19458 -6.12953,1.7834 -9.28571,2.14285 -1.53768,0.17512 -4.64286,0 -4.64286,0 0,0 -0.37425,6.67552 -0.71429,10 -0.18331,1.79217 -0.71428,5.35715 -0.71428,5.35715 0,0 9.2712,1.73149 13.92857,1.42857 6.71385,-0.43667 13.1966,-2.71614 19.64286,-4.64286 5.34023,-1.59614 10.69324,-3.29458 15.71428,-5.71428 6.16164,-2.96937 11.33446,-7.75304 17.5,-10.71429 6.95876,-3.34222 14.3314,-5.85021 21.78572,-7.85714 7.71136,-2.07614 15.6023,-3.76742 23.57142,-4.28572 4.7578,-0.30944 9.6028,-0.18166 14.28572,0.71429 5.80527,1.11069 11.46935,3.13143 16.78571,5.71428 2.55424,1.24093 7.14286,4.64286 7.14286,4.64286 0,0 -27.45924,1.68605 -41.07143,3.57143 -18.24743,2.52739 -36.2486,6.61294 -54.28571,10.35714 -11.70745,2.43027 -23.40357,4.94281 -35,7.85715 -9.46821,2.37949 -28.21429,7.85714 -28.21429,7.85714 l 3.21429,11.78571 c 0,0 17.53587,-5.75976 26.42857,-8.21428 18.06386,-4.9859 36.35194,-9.13943 54.64286,-13.21429 12.21472,-2.7212 24.39774,-5.72729 36.78571,-7.5 8.51441,-1.2184 17.14226,-1.43581 25.71429,-2.14286 5.83293,-0.48112 17.5,-1.42857 17.5,-1.42857 0,0 4.24606,3.61257 6.78571,4.64286 3.24635,1.31698 6.85755,1.94726 10.35714,1.78571 3.20205,-0.14781 6.34695,-1.21993 9.28572,-2.5 3.08896,-1.34549 8.57143,-5.35714 8.57143,-5.35714 0,0 18.09212,-0.73094 27.14285,-0.71428 11.9101,0.0219 23.82224,0.41565 35.71429,1.07142 13.35602,0.7365 26.68872,1.8969 40,3.21429 12.16716,1.20416 24.4018,2.08423 36.42857,4.28571 3.86259,0.70704 11.42857,2.85715 11.42857,2.85715 l 2.85715,-11.07143 -13.21429,-2.5 c 0,0 3.77245,-4.86798 5.35714,-7.5 1.64768,-2.73665 4.28572,-8.57143 4.28572,-8.57143 0,0 -9.28549,-0.24714 -13.92857,-0.35714 -5.47595,-0.12973 -16.42858,-0.35715 -16.42858,-0.35715 0,0 12.07821,-2.2669 17.85715,-4.28571 3.72068,-1.29978 10.71428,-5 10.71428,-5 l 2.14286,-10.35714 c 0,0 -10.46825,5.61496 -16.07143,7.5 -5.88683,1.98047 -12.02007,3.47152 -18.21428,3.92857 -5.47295,0.40383 -11.02251,-0.12768 -16.42858,-1.07143 -7.20066,-1.25704 -14.17916,-3.63703 -21.07143,-6.07143 -9.25648,-3.26946 -17.70537,-8.72564 -27.14285,-11.42857 -6.49123,-1.85911 -13.24835,-3.12711 -20,-3.21429 -8.04716,-0.10391 -16.25951,0.7744 -23.92857,3.21429 -5.37876,1.71124 -10.72052,4.17672 -15,7.85714 -3.35785,2.8878 -5.56675,6.9237 -7.85715,10.71429 -2.94619,4.87592 -7.5,15.35714 -7.5,15.35714 0,0 -7.14851,-8.08923 -11.07143,-11.78571 -2.70681,-2.55057 -5.40771,-5.18758 -8.57142,-7.14286 -5.30571,-3.27911 -11.12217,-5.87077 -17.14286,-7.5 z"
       id="path3799-6"
       inkscape:connector-curvature="0"
       sodipodi:nodetypes="aaaaaaaacacaaaaaaaacaaaccaaaacaaacaaaacccacacaccaaaaaaaaacaaa" />
    <path
       style="color:#000000;fill:#ad400c;fill-opacity:1;stroke:none;stroke-width:2.5;marker:none;visibility:visible;display:inline;overflow:visible;enable-background:accumulate"
       d="m 476.95114,367.06186 c -0.57146,-2.21748 4.55467,-1.98114 5.55584,-4.04061 0.99438,-2.04551 -2.01902,-5.38589 -0.25254,-6.81853 1.61742,-1.31175 3.98053,1.60866 6.06092,1.51523 2.04784,-0.092 4.45558,-0.48016 5.80837,-2.0203 1.36189,-1.5505 1.90459,-4.0996 1.26269,-6.06092 -0.70453,-2.15268 -2.97697,-3.63477 -5.05076,-4.54569 -1.62583,-0.71416 -3.53204,-0.37862 -5.3033,-0.50507 -1.76528,-0.12602 -3.70655,0.51066 -5.3033,-0.25254 -0.91456,-0.43713 -1.06962,-1.92116 -2.02031,-2.27284 -1.75298,-0.64847 -5.06979,2.56239 -5.55583,0.75761 -0.40245,-1.49437 2.92712,-1.04037 4.29314,-1.76777 1.07159,-0.57062 2.55315,-0.90401 3.03046,-2.0203 0.57132,-1.33614 0.21114,-3.21001 -0.75761,-4.29315 -0.99442,-1.11184 -2.80736,-1.39497 -4.29315,-1.26269 -2.06238,0.18362 -4.26025,4.39303 -5.55584,2.77792 -1.08589,-1.35369 3.01387,-2.3262 3.283,-4.04061 0.25213,-1.60611 -0.61604,-3.39823 -1.76777,-4.54569 -0.83061,-0.82753 -2.11054,-1.27051 -3.283,-1.26269 -1.35993,0.009 -2.56507,0.92045 -3.78807,1.51523 -1.66199,0.80828 -3.73985,4.29297 -4.79822,2.77792 -1.50605,-2.1559 4.61144,-2.85642 6.06091,-5.05076 0.96879,-1.46664 2.08405,-3.38763 1.51523,-5.05077 -0.46868,-1.37034 -2.08936,-2.44731 -3.53553,-2.52538 -1.54308,-0.0833 -2.80936,1.339 -4.04061,2.27285 -0.85366,0.64747 -1.357,2.82887 -2.27285,2.27284 -1.43371,-0.87044 1.8833,-3.16184 1.51523,-4.79822 -0.35293,-1.56904 -1.82722,-2.85204 -3.28299,-3.53554 -1.37369,-0.64496 -3.05418,-0.53253 -4.54569,-0.25254 -0.99968,0.18766 -1.87448,0.79539 -2.77792,1.26269 -1.03873,0.53728 -1.8951,2.04809 -3.03046,1.76777 -2.31298,-0.57108 -1.80665,-4.73804 -3.78807,-6.06091 -1.27757,-0.85295 -3.0721,-1.19148 -4.54569,-0.75762 -1.20047,0.35344 -1.5721,2.86009 -2.77792,2.52538 -1.69368,-0.47013 -0.10502,-4.00153 -1.51522,-5.05076 -1.4858,-1.10548 -3.71895,-0.23565 -5.55584,0 -1.98466,0.25461 -4.00608,0.64608 -5.80838,1.51523 -1.13735,0.54848 -1.94611,1.62586 -3.03046,2.27284 -2.07006,1.23511 -4.33062,2.12835 -6.56599,3.03046 -1.90094,0.76715 -3.7806,2.32061 -5.80838,2.0203 -1.13261,-0.16774 -1.63824,-1.91046 -2.77792,-2.0203 -1.38699,-0.13368 -2.39465,1.76777 -3.78807,1.76777 -1.39342,0 -2.47769,-1.29393 -3.78807,-1.76777 -1.5553,-0.56241 -3.15101,-1.41076 -4.79823,-1.26269 -1.38782,0.12476 -2.39639,1.69816 -3.78807,1.76777 -1.7815,0.0891 -3.28207,-1.53662 -5.05076,-1.76777 -2.17662,-0.28446 -4.65414,-0.57355 -6.56599,0.50507 -1.26138,0.71164 -2.16995,2.13155 -2.52538,3.53554 -0.16656,0.65792 0.0159,1.38422 0.25254,2.0203 0.52917,1.42232 3.29428,2.47972 2.52538,3.78808 -1.06968,1.82016 -4.31161,0.16561 -6.31346,-0.50508 -1.04071,-0.34867 -1.72413,-1.4609 -2.77792,-1.76777 -1.69727,-0.49425 -3.75714,-0.85696 -5.3033,0 -1.38919,0.76995 -2.67587,2.45946 -2.52538,4.04061 0.15238,1.60101 3.92585,2.06136 3.283,3.53554 -0.8412,1.92905 -4.21031,-0.075 -6.31346,0 -2.36152,0.0842 -5.0369,-0.69746 -7.07106,0.50507 -1.46729,0.86741 -2.61301,2.59664 -2.77792,4.29315 -0.17543,1.80477 0.71033,3.79698 2.0203,5.05076 1.28862,1.23334 5.39136,0.0169 5.05076,1.76777 -0.33794,1.73721 -3.53575,-0.16394 -5.3033,-0.25254 -1.59961,-0.0802 -3.22138,-0.53321 -4.79822,-0.25254 -1.26234,0.2247 -2.77932,2.55067 -3.53554,1.51523 -0.98549,-1.34936 2.82008,-2.18256 3.283,-3.78807 0.30675,-1.06386 0.0903,-2.34947 -0.50508,-3.28299 -0.81601,-1.2795 -2.29631,-2.24673 -3.78807,-2.52539 -2.2887,-0.42752 -4.64406,0.683 -6.81853,1.51523 -1.44324,0.55237 -2.60476,1.70154 -4.04061,2.27285 -1.28996,0.51326 -2.69423,1.34881 -4.04061,1.01015 -1.21361,-0.30526 -1.72527,-1.84865 -2.77792,-2.52538 -2.15707,-1.38673 -4.51261,-2.85657 -7.07107,-3.03046 -2.52656,-0.17172 -5.08543,0.83559 -7.3236,2.02031 -1.95289,1.03371 -3.78036,2.48526 -5.05076,4.29314 -0.82703,1.17693 -1.85311,2.6424 -1.51523,4.04061 0.29394,1.21641 1.66473,1.95368 2.77792,2.52539 1.07213,0.55063 3.2833,-0.42097 3.53553,0.75761 0.32768,1.53116 -2.39721,2.05868 -3.78807,2.77792 -0.94582,0.4891 -1.97222,0.89216 -3.03046,1.01015 -1.68156,0.18749 -3.38134,-0.78044 -5.05076,-0.50507 -1.00358,0.16554 -2.05661,0.54554 -2.77792,1.26269 -0.85471,0.84978 -1.68116,2.0892 -1.51523,3.28299 0.10685,0.76871 0.81014,1.44347 1.51523,1.76777 1.30013,0.59797 2.97103,-0.54764 4.29315,0 0.98987,0.41002 2.32621,1.20274 2.27284,2.27284 -0.0596,1.19493 -1.6325,1.92726 -2.77792,2.27285 -1.61986,0.48874 -3.36088,-0.4208 -5.05076,-0.50508 -1.51335,-0.0755 -3.19545,-0.68758 -4.54569,0 -1.02029,0.51956 -1.63615,1.69932 -2.0203,2.77792 -0.50916,1.4296 -0.75671,3.11431 -0.25254,4.54568 0.37625,1.06819 2.51201,1.41841 2.27284,2.52539 -0.31047,1.43697 -2.57257,1.68949 -4.04061,1.76776 -1.67488,0.0893 -3.21607,-0.95844 -4.79822,-1.51523 -1.53358,-0.5397 -2.9414,-1.50436 -4.54569,-1.76776 -1.82937,-0.30035 -3.89529,-0.57171 -5.55584,0.25254 -1.17781,0.58463 -2.39359,1.72215 -2.52538,3.03045 -0.12458,1.23664 0.8447,2.4507 1.76777,3.283 1.14939,1.03636 4.73702,0.28517 4.29315,1.76777 -0.76234,2.54632 -5.19532,-1.87621 -7.82869,-1.51523 -1.86487,0.25564 -3.73263,1.18165 -5.05076,2.52538 -1.37111,1.39773 -1.06708,3.99678 -2.52538,5.3033 -1.52677,1.36787 -4.25583,0.68176 -5.80838,2.0203 -1.51142,1.30309 -3.13074,3.33914 -2.77792,5.30331 0.20023,1.11468 1.45824,1.89364 2.52538,2.27284 1.58839,0.56443 3.40161,0.0965 5.05077,-0.25254 1.14707,-0.24277 2.3165,-1.92647 3.28299,-1.26269 0.62451,0.42891 0.42775,1.64753 0,2.27284 -0.91792,1.34185 -2.95319,1.44051 -4.54568,1.76777 -2.39265,0.4917 -5.00224,-0.50759 -7.32361,0.25254 -2.13016,0.69751 -4.25473,1.96291 -5.55584,3.78807 -1.67141,2.34461 -2.77191,5.49796 -2.27284,8.33376 0.30361,1.72515 1.71707,3.13413 3.03046,4.29315 1.07299,0.94688 2.36059,1.91936 3.78807,2.0203 1.96568,0.13899 3.58525,-2.0203 5.55584,-2.0203 0.98529,0 1.83002,0.74127 2.77792,1.01015 2.39829,0.68028 4.83093,1.48119 7.3236,1.51523 2.39409,0.0327 4.9637,-2.39922 7.07107,-1.26269 0.56426,0.30431 1.05133,1.19792 0.75761,1.76776 -0.90777,1.76116 -3.9174,0.67112 -5.80837,1.2627 -2.52144,0.78882 -5.25517,1.38685 -7.32361,3.03045 -1.70084,1.35149 -1.6854,4.75724 -3.78807,5.3033 -1.71295,0.44485 -3.04839,-2.00795 -4.79823,-2.27284 -2.35413,-0.35637 -4.97809,-0.12492 -7.07106,1.01015 -1.57322,0.85319 -2.49065,2.58763 -3.53554,4.04061 -0.68278,0.94944 -0.60145,2.94477 -1.76776,3.03046 -1.07513,0.079 -1.04868,-2.05839 -2.02031,-2.52538 -2.12439,-1.02103 -4.71793,-0.13531 -7.07107,0 -2.19955,0.12648 -4.62775,-0.28988 -6.56599,0.75761 -1.7352,0.93776 -3.18829,2.66671 -3.78807,4.54569 -0.33376,1.04559 1.02651,2.50479 0.25254,3.283 -1.66634,1.67547 -4.91267,-1.46695 -7.07107,-0.50508 -1.75336,0.78137 -3.13907,2.66749 -3.53553,4.54569 -0.28674,1.35839 0.005,3.08255 1.01015,4.04061 0.93194,0.88862 2.52388,0.51268 3.78807,0.75761 1.34532,0.26065 3.13486,-0.27071 4.04061,0.75762 0.9475,1.07574 -0.12958,2.91149 0.25254,4.29314 0.58211,2.10479 1.30772,4.46631 3.03046,5.80838 1.43352,1.11676 3.50744,1.54024 5.3033,1.26269 1.45526,-0.22491 2.32657,-2.45276 3.78807,-2.27284 1.0634,0.13091 1.31162,1.79953 2.27284,2.27284 1.75168,0.86253 3.88045,1.06659 5.80838,0.75762 2.30495,-0.36939 4.44924,-1.62548 6.31345,-3.03046 1.619,-1.22017 2.0133,-4.5494 4.04061,-4.54569 1.90848,0.003 2.04852,3.50814 3.78808,4.29315 1.99494,0.90025 4.5059,0.73909 6.56599,0 1.74495,-0.62603 2.45879,-3.26729 4.29314,-3.53553 1.71714,-0.2511 3.09716,1.67679 4.79823,2.0203 1.89782,0.38325 3.93006,0.46958 5.80838,0 1.38832,-0.34708 2.56096,-2.75657 3.78807,-2.0203 1.80458,1.08275 -0.94115,4.43114 0,6.31345 0.75292,1.50585 2.47352,2.41508 4.04061,3.03046 1.49696,0.58784 3.43237,-0.34399 4.79822,0.50507 1.60658,0.99871 1.43368,3.78392 3.03046,4.79823 1.71861,1.0917 4.04753,1.06036 6.06092,0.75761 1.82567,-0.27452 3.49728,-1.27527 5.05076,-2.27284 1.50592,-0.96703 2.27435,-3.8241 4.04061,-3.53553 2.30831,0.37712 1.59504,4.75514 3.53553,6.06091 1.48152,0.99693 3.5289,0.95833 5.3033,0.75762 2.33011,-0.26358 4.26044,-2.0973 6.566,-2.52539 1.90359,-0.35345 3.90331,0.34545 5.80837,0 2.12306,-0.38498 4.22286,-1.14272 6.06092,-2.27284 2.43601,-1.49777 3.48623,-5.37909 6.31345,-5.80838 1.74972,-0.26568 3.03188,2.38282 4.79823,2.27285 2.19089,-0.1364 3.84355,-2.16199 5.55584,-3.53554 0.74289,-0.59593 1.11519,-1.72399 2.0203,-2.0203 1.05226,-0.34448 2.1839,0.63879 3.283,0.50507 1.08632,-0.13217 2.23047,-0.51598 3.03045,-1.26269 1.51362,-1.41283 3.14476,-3.51806 2.77792,-5.55584 -0.30601,-1.69989 -3.43862,-1.84404 -3.78807,-3.53553 -0.29744,-1.43973 2.09855,-2.60818 1.76777,-4.04061 -0.49717,-2.15295 -2.89922,-3.78993 -5.05076,-4.29315 -2.02776,-0.47427 -4.53754,2.9351 -6.06092,1.51523 -1.06302,-0.99079 1.34851,-2.96555 0.75761,-4.29315 -0.64585,-1.45105 -2.45527,-2.62214 -4.04061,-2.52538 -2.27018,0.13856 -3.04535,4.02011 -5.3033,4.29315 -1.57015,0.18987 -2.71305,-1.95165 -4.29314,-2.02031 -1.7029,-0.074 -3.21958,2.41059 -4.79823,1.76777 -1.81339,-0.7384 -0.99095,-4.0871 -2.52538,-5.3033 -1.55275,-1.23073 -3.90733,-1.82103 -5.80838,-1.26269 -2.05601,0.60386 -2.45699,5.02446 -4.54568,4.54569 -1.99808,-0.45801 -0.95945,-4.05433 -2.02031,-5.80838 -0.95543,-1.57974 -3.81783,-2.19465 -3.78807,-4.04061 0.0269,-1.66645 2.89773,-1.99574 3.53553,-3.53554 0.74092,-1.78875 -1.85983,-5.27023 0,-5.80837 1.81715,-0.5258 1.41489,3.81412 3.03046,4.79822 1.65975,1.01101 3.99406,1.20163 5.80838,0.50508 1.61247,-0.61905 1.85237,-3.40045 3.53553,-3.78807 1.14258,-0.26313 2.56044,0.33931 3.283,1.26269 0.83649,1.06897 -0.20853,2.88598 0.50507,4.04061 0.63826,1.03273 1.86046,1.69623 3.03046,2.0203 1.70555,0.47241 3.55123,-0.003 5.3033,-0.25254 2.14259,-0.30536 4.47318,-2.65423 6.31345,-1.51522 0.95497,0.59107 0.045,2.41493 0.75762,3.28299 1.17143,1.42696 3.2047,2.29561 5.05076,2.27284 2.33419,-0.0288 4.03729,-2.51246 6.31346,-3.03045 1.7237,-0.39226 3.6701,0.6765 5.3033,0 1.97974,-0.82004 3.36606,-2.75674 4.54568,-4.54569 0.74864,-1.13535 0.33004,-3.12112 1.51523,-3.78807 2.2312,-1.25558 5.31313,2.45996 7.57615,1.26269 1.06536,-0.56363 1.6609,-2.08657 1.51522,-3.283 -0.1303,-1.07012 -2.54676,-1.58465 -2.0203,-2.52538 0.99431,-1.77673 4.37367,-0.38195 6.06091,0.75762 1.43642,0.97016 0.91594,3.90209 2.52539,4.54568 1.31023,0.52394 3.2308,-0.10709 4.04061,-1.26269 1.0639,-1.51819 -1.84461,-4.60605 -0.25254,-5.55584 0.84306,-0.50295 1.54374,1.50479 2.52538,1.51523 2.03591,0.0217 4.12735,-1.36837 5.3033,-3.03046 1.08717,-1.5366 1.40121,-3.7146 1.01015,-5.55583 -0.46568,-2.19254 -4.79713,-3.55437 -3.78807,-5.55584 0.98602,-1.95578 4.82656,1.07852 6.56599,-0.25254 1.12064,-0.85755 1.70181,-2.69957 1.26269,-4.04061 -0.61824,-1.88806 -3.90222,-1.76236 -4.79822,-3.53554 -0.83523,-1.65291 0.57819,-3.79646 0,-5.55584 -0.62026,-1.8874 -1.76236,-3.90222 -3.53554,-4.79822 -2.02857,-1.02505 -6.29634,2.21204 -6.81853,0 -0.56221,-2.38154 4.51421,-1.94959 6.566,-3.283 1.55444,-1.01019 2.46087,-3.8176 4.29314,-3.53553 1.98461,0.30552 1.43926,4.25536 3.283,5.05076 0.86417,0.37281 2.13439,0.18169 2.77792,-0.50507 1.50646,-1.60767 -0.88714,-5.10011 0.75761,-6.56599 0.75411,-0.6721 2.05531,-0.26363 3.03046,0 1.12893,0.3052 1.87065,1.61783 3.03046,1.76776 1.55962,0.20162 3.27209,-0.34018 4.54569,-1.26269 0.98322,-0.71218 0.85529,-2.6889 2.0203,-3.03046 1.41075,-0.41361 2.59242,2.02081 4.04061,1.76777 2.17031,-0.37922 2.75214,-5.36273 4.79823,-4.54569 1.48742,0.59395 -0.60462,3.44528 0.25253,4.79823 0.66517,1.04992 2.04024,1.786 3.283,1.76777 2.52651,-0.0371 4.07267,-3.37818 6.56599,-3.78808 1.69419,-0.27852 3.35559,0.73768 5.05076,1.01016 3.43286,0.55179 6.92828,0.66857 10.35407,1.26269 2.63592,0.45713 7.87397,-0.90712 7.82868,1.76776 -0.0609,3.59858 -7.27518,0.65826 -10.6066,2.02031 -1.96657,0.80403 -4.09152,1.7904 -5.3033,3.53553 -0.8385,1.20756 -1.70265,2.99633 -1.01016,4.29315 0.67757,1.26889 3.85989,0.0882 4.04062,1.51523 0.25821,2.0388 -3.53787,2.14467 -5.05077,3.53553 -1.45203,1.33489 -3.20135,2.66259 -3.78807,4.54569 -0.55316,1.7754 -0.77898,4.21076 0.50508,5.55584 1.70164,1.78249 5.44624,-0.58621 7.3236,1.01015 0.87226,0.7417 1.30404,2.17639 1.01016,3.283 -0.47386,1.78435 -3.22713,2.13076 -4.04062,3.78807 -0.78245,1.59409 -1.44613,3.7974 -0.50507,5.3033 1.14346,1.82978 5.47398,0.19652 6.06091,2.27284 0.52217,1.8472 -3.62891,2.62838 -3.53553,4.54569 0.10718,2.20058 2.52179,3.92768 4.54569,4.79823 2.86118,1.23069 7.56983,-2.56 9.34391,0 0.81934,1.18231 -1.65374,2.60884 -1.51523,4.04061 0.12373,1.27897 0.92912,2.60447 2.0203,3.28299 2.29758,1.42868 5.43427,1.31766 8.08122,0.75762 2.35976,-0.49928 4.09912,-4.49182 6.31346,-3.53554 1.27455,0.55042 0.32613,2.83249 1.01015,4.04061 0.6452,1.13955 1.56808,2.27679 2.77792,2.77792 1.39989,0.57985 4.0098,-1.4173 4.54569,0 0.67497,1.78514 -3.46018,2.07096 -4.29315,3.78807 -0.66235,1.36539 -1.10538,3.29043 -0.25254,4.54569 0.74799,1.10093 3.53221,-0.0435 3.78807,1.26269 0.29838,1.52324 -2.7886,1.6698 -3.53553,3.03046 -0.57287,1.04358 -1.04529,2.47468 -0.50508,3.53553 0.73477,1.44292 2.67393,2.27285 4.29315,2.27285 1.61922,0 2.92839,-3.14423 4.29315,-2.27285 1.34993,0.86191 -1.24264,3.5393 -0.25254,4.79823 1.69425,2.15426 5.37756,1.96418 8.08122,1.51523 2.19395,-0.36431 3.58635,-3.37634 5.80838,-3.283 2.23947,0.0941 3.42954,3.0789 5.55584,3.78807 1.75862,0.58654 3.70246,0.21044 5.55584,0.25254 1.68315,0.0382 3.41744,-0.40833 5.05076,0 1.38832,0.34708 2.61053,1.2071 3.78807,2.02031 0.73632,0.5085 1.5411,1.01205 2.02031,1.76776 0.98457,1.55265 0.45115,3.80401 1.51522,5.3033 1.0138,1.42847 3.624,1.41165 4.29315,3.03046 0.75072,1.81614 -0.72688,3.86372 -1.01015,5.80838 -0.2077,1.42587 0.28228,3.08637 -0.50508,4.29315 -0.90722,1.39049 -2.81665,1.76611 -4.29314,2.52538 -1.47459,0.75829 -2.93252,2.40384 -4.54569,2.0203 -1.16397,-0.27674 -1.17468,-2.3031 -2.27284,-2.77792 -2.24604,-0.97114 -5.09645,-0.50861 -7.32361,0.50508 -1.73364,0.78906 -2.59251,2.80322 -4.04061,4.04061 -0.87046,0.7438 -1.68908,1.66623 -2.77792,2.0203 -1.04069,0.33842 -2.25768,0.38248 -3.283,0 -1.56553,-0.584 -2.18386,-2.8156 -3.78807,-3.28299 -2.20593,-0.64271 -4.72799,0.0568 -6.81853,1.01015 -2.11841,0.96605 -3.53553,3.03046 -5.3033,4.54569 -1.17851,1.01015 -2.03181,2.64559 -3.53553,3.03046 -1.58343,0.40527 -3.19488,-1.3276 -4.79823,-1.01016 -2.19877,0.43533 -4.29406,1.9355 -5.55584,3.78807 -1.0691,1.56968 -0.2367,3.95765 -1.26269,5.55584 -0.97324,1.51601 -3.63095,1.6076 -4.29314,3.283 -0.75286,1.90479 -0.009,4.28409 1.01015,6.06092 0.98107,1.71108 3.3864,2.19234 4.54568,3.78807 0.79932,1.10026 0.52016,2.86107 1.51523,3.78807 1.61675,1.50615 4.12035,2.28987 6.31346,2.0203 2.06355,-0.25364 3.22427,-3.26855 5.3033,-3.28299 0.98167,-0.007 2.0417,0.66096 2.52538,1.51523 0.6636,1.17205 -0.71731,2.90064 0,4.04061 1.24322,1.97577 3.98535,2.8595 6.31345,3.03046 2.5492,0.18719 5.05273,-1.09959 7.32361,-2.27285 1.60052,-0.82692 2.7877,-4.27247 4.29315,-3.28299 1.16016,0.76254 -1.80602,2.90305 -1.01016,4.04061 0.92193,1.31776 3.25733,0.96561 4.79823,0.50507 2.29262,-0.68521 3.73244,-2.99622 5.55584,-4.54568 1.45432,-1.23582 2.41096,-3.47238 4.29315,-3.78808 1.5263,-0.25601 2.74867,1.66909 4.29314,1.76777 2.26199,0.14453 4.51686,-0.79901 6.566,-1.76777 1.30933,-0.619 2.09169,-2.41209 3.53553,-2.52538 2.25185,-0.17668 4.38356,1.51767 6.06091,3.03046 0.81505,0.73508 0.79054,2.27825 1.76777,2.77792 1.27636,0.65261 3.02204,0.41023 4.29315,-0.25254 1.80689,-0.94214 1.95428,-3.90956 3.78807,-4.79822 1.36356,-0.66078 3.1458,0.57985 4.54569,0 1.75977,-0.72892 2.96682,-2.46737 4.04061,-4.04061 0.82877,-1.21426 0.37674,-3.56489 1.76777,-4.04061 0.99802,-0.34131 1.77149,1.83086 2.77792,1.51523 1.61645,-0.50694 2.2985,-2.85181 2.27284,-4.54569 -0.0376,-2.4855 -3.2843,-4.09293 -3.53554,-6.56599 -0.17765,-1.74872 1.6894,-3.3017 1.51523,-5.05077 -0.1418,-1.42401 -0.666,-3.32571 -2.0203,-3.78807 -1.74718,-0.59649 -3.477,3.23812 -5.05076,2.27285 -1.50861,-0.92531 0.17452,-3.58583 -0.25254,-5.3033 -0.38165,-1.53485 -1.01245,-3.07428 -2.02031,-4.29315 -0.72963,-0.88238 -2.97013,-0.89159 -2.77792,-2.02031 0.29507,-1.73278 3.62409,-0.48851 5.05077,-1.51523 1.42176,-1.02318 1.47518,-3.48727 3.03045,-4.29315 1.42009,-0.73583 3.36435,0.70859 4.79823,0 1.61507,-0.79812 3.16265,-2.49565 3.28299,-4.29314 0.0907,-1.35432 -2.55305,-2.28711 -2.0203,-3.53554 0.68113,-1.59615 3.80337,-0.0562 5.05076,-1.26269 1.3215,-1.27818 1.87728,-3.5008 1.51523,-5.3033 -0.21229,-1.05691 -1.87932,-1.45662 -2.02031,-2.52538 -0.19228,-1.4575 1.76224,-2.57049 1.76777,-4.04061 0.002,-0.64109 -0.23532,-1.396 -0.75761,-1.76777 -1.92513,-1.37032 -5.68415,1.40814 -7.07107,-0.50507 -0.81484,-1.12404 0.27208,-2.86473 1.01015,-4.04061 0.69905,-1.11372 2.80283,-1.23032 3.03046,-2.52539 0.20245,-1.1518 -0.81194,-2.35665 -1.76777,-3.03045 -2.24004,-1.5791 -6.97145,0.99071 -8.08122,-1.51523 -0.52031,-1.17489 1.17899,-2.31178 2.02031,-3.283 0.86095,-0.99388 2.75164,-1.24036 3.03046,-2.52538 0.5349,-2.46521 -1.40967,-5.12914 -3.283,-6.81853 -1.66103,-1.49793 -5.40689,-0.22809 -6.31345,-2.27284 -0.62727,-1.4148 1.72806,-2.74604 1.76776,-4.29315 0.0389,-1.51707 -2.49645,-3.13548 -1.51523,-4.29315 0.93958,-1.10854 2.98863,0.11739 4.29315,0.75762 1.12341,0.55135 1.53824,2.35437 2.77792,2.52538 1.49172,0.20578 3.17533,-0.78788 4.04061,-2.02031 0.82797,-1.17929 1.03381,-2.95274 0.50508,-4.29315 -0.52601,-1.33353 -3.42819,-1.35177 -3.283,-2.77792 0.10683,-1.04934 2.27217,-0.58961 2.77792,-1.51522 0.56652,-1.03684 0.29222,-2.4871 -0.25254,-3.53554 -1.35176,-2.60159 -4.04038,-4.61915 -6.81853,-5.55584 -2.39435,-0.80729 -6.95472,2.70172 -7.57614,0.25254 -0.50922,-2.00695 4.81072,-0.8461 5.55584,-2.77792 0.58507,-1.51685 -0.71198,-3.30939 -1.76777,-4.54569 -1.51891,-1.7786 -3.74774,-3.18949 -6.06091,-3.53553 -1.45395,-0.2175 -3.04741,0.22951 -4.29315,1.01015 -1.47053,0.92151 -1.60674,4.48982 -3.283,4.04061 -2.05861,-0.55167 -0.009,-4.43224 -1.01015,-6.31345 -0.81175,-1.52458 -2.06306,-3.62275 -3.78807,-3.53553 -1.7874,0.0904 -2.18409,2.86735 -3.53554,4.04061 -1.74549,1.51533 -3.84525,5.00837 -5.80837,3.78807 -1.80014,-1.11899 1.74751,-4.43923 0.75761,-6.31346 -1.10779,-2.09743 -3.94882,-3.09607 -6.31345,-3.28299 -2.65371,-0.20977 -4.91519,2.45152 -7.57615,2.52538 -0.95942,0.0266 -2.22623,0.0278 -2.77792,-0.75761 -1.21352,-1.72759 1.21145,-4.32392 0.50508,-6.31346 -0.85659,-2.41267 -2.89605,-4.68413 -5.3033,-5.55584 -2.78827,-1.00968 -5.87342,1.02582 -8.83883,1.01016 -2.036,-0.0108 -5.55282,1.21399 -6.06092,-0.75762 z"
       id="path3765-0"
       inkscape:connector-curvature="0"
       sodipodi:nodetypes="aaaaaaaaaaaaaaaaaaaaaaaaaaaaaaaaaaaaaaaaaaaaaaaaaaaaaaaaaaaaaaaaaaaaaaaaaaaaaaaaaaaaaaaaaaaaaaaaaaaaaaaaaaaaaaaaaaaaaaaaaaaaaaaaaaaaaaaaaaaaaaaaaaaaaaaaaaaaaaaaaaaaaaaaaaaaaaaaaaaaaaaaaaaaaaaaaaaaaaaaaaaaaaaaaaaaaaaaaaaaaaaaaaaaaaaaaaaaaaaaaaaaaaaaaaaaaaaaaaaaaaaaaaaaaaaaaaaaaaaaaaaaaaaaaaaaaaaaaaaaaaaaaaaaaaaaaaaaaaaaaaaaaaaaaaaaaaaaaaaaaaaaaaaaaaaaaaaaaaaaaaaaaaa" />
    <path
       style="color:#000000;fill:none;stroke:#000000;stroke-width:2.5;stroke-opacity:1;marker:none;visibility:visible;display:inline;overflow:visible;enable-background:accumulate;stroke-miterlimit:4;stroke-dasharray:none"
       d="m 477.04454,366.72114 c -0.57146,-2.21748 4.55467,-1.98114 5.55584,-4.04061 0.99438,-2.04551 -2.01902,-5.38589 -0.25254,-6.81853 1.61742,-1.31175 3.98053,1.60866 6.06092,1.51523 2.04784,-0.092 4.45558,-0.48016 5.80837,-2.0203 1.36189,-1.5505 1.90459,-4.0996 1.26269,-6.06092 -0.70453,-2.15268 -2.97697,-3.63477 -5.05076,-4.54569 -1.62583,-0.71416 -3.53204,-0.37862 -5.3033,-0.50507 -1.76528,-0.12602 -3.70655,0.51066 -5.3033,-0.25254 -0.91456,-0.43713 -1.06962,-1.92116 -2.02031,-2.27284 -1.75298,-0.64847 -5.06979,2.56239 -5.55583,0.75761 -0.40245,-1.49437 2.92712,-1.04037 4.29314,-1.76777 1.07159,-0.57062 2.55315,-0.90401 3.03046,-2.0203 0.57132,-1.33614 0.21114,-3.21001 -0.75761,-4.29315 -0.99442,-1.11184 -2.80736,-1.39497 -4.29315,-1.26269 -2.06238,0.18362 -4.26025,4.39303 -5.55584,2.77792 -1.08589,-1.35369 3.01387,-2.3262 3.283,-4.04061 0.25213,-1.60611 -0.61604,-3.39823 -1.76777,-4.54569 -0.83061,-0.82753 -2.11054,-1.27051 -3.283,-1.26269 -1.35993,0.009 -2.56507,0.92045 -3.78807,1.51523 -1.66199,0.80828 -3.73985,4.29297 -4.79822,2.77792 -1.50605,-2.1559 4.61144,-2.85642 6.06091,-5.05076 0.96879,-1.46664 2.08405,-3.38763 1.51523,-5.05077 -0.46868,-1.37034 -2.08936,-2.44731 -3.53553,-2.52538 -1.54308,-0.0833 -2.80936,1.339 -4.04061,2.27285 -0.85366,0.64747 -1.357,2.82887 -2.27285,2.27284 -1.43371,-0.87044 1.8833,-3.16184 1.51523,-4.79822 -0.35293,-1.56904 -1.82722,-2.85204 -3.28299,-3.53554 -1.37369,-0.64496 -3.05418,-0.53253 -4.54569,-0.25254 -0.99968,0.18766 -1.87448,0.79539 -2.77792,1.26269 -1.03873,0.53728 -1.8951,2.04809 -3.03046,1.76777 -2.31298,-0.57108 -1.80665,-4.73804 -3.78807,-6.06091 -1.27757,-0.85295 -3.0721,-1.19148 -4.54569,-0.75762 -1.20047,0.35344 -1.5721,2.86009 -2.77792,2.52538 -1.69368,-0.47013 -0.10502,-4.00153 -1.51522,-5.05076 -1.4858,-1.10548 -3.71895,-0.23565 -5.55584,0 -1.98466,0.25461 -4.00608,0.64608 -5.80838,1.51523 -1.13735,0.54848 -1.94611,1.62586 -3.03046,2.27284 -2.07006,1.23511 -4.33062,2.12835 -6.56599,3.03046 -1.90094,0.76715 -3.7806,2.32061 -5.80838,2.0203 -1.13261,-0.16774 -1.63824,-1.91046 -2.77792,-2.0203 -1.38699,-0.13368 -2.39465,1.76777 -3.78807,1.76777 -1.39342,0 -2.47769,-1.29393 -3.78807,-1.76777 -1.5553,-0.56241 -3.15101,-1.41076 -4.79823,-1.26269 -1.38782,0.12476 -2.39639,1.69816 -3.78807,1.76777 -1.7815,0.0891 -3.28207,-1.53662 -5.05076,-1.76777 -2.17662,-0.28446 -4.65414,-0.57355 -6.56599,0.50507 -1.26138,0.71164 -2.16995,2.13155 -2.52538,3.53554 -0.16656,0.65792 0.0159,1.38422 0.25254,2.0203 0.52917,1.42232 3.29428,2.47972 2.52538,3.78808 -1.06968,1.82016 -4.31161,0.16561 -6.31346,-0.50508 -1.04071,-0.34867 -1.72413,-1.4609 -2.77792,-1.76777 -1.69727,-0.49425 -3.75714,-0.85696 -5.3033,0 -1.38919,0.76995 -2.67587,2.45946 -2.52538,4.04061 0.15238,1.60101 3.92585,2.06136 3.283,3.53554 -0.8412,1.92905 -4.21031,-0.075 -6.31346,0 -2.36152,0.0842 -5.0369,-0.69746 -7.07106,0.50507 -1.46729,0.86741 -2.61301,2.59664 -2.77792,4.29315 -0.17543,1.80477 0.71033,3.79698 2.0203,5.05076 1.28862,1.23334 5.39136,0.0169 5.05076,1.76777 -0.33794,1.73721 -3.53575,-0.16394 -5.3033,-0.25254 -1.59961,-0.0802 -3.22138,-0.53321 -4.79822,-0.25254 -1.26234,0.2247 -2.77932,2.55067 -3.53554,1.51523 -0.98549,-1.34936 2.82008,-2.18256 3.283,-3.78807 0.30675,-1.06386 0.0903,-2.34947 -0.50508,-3.28299 -0.81601,-1.2795 -2.29631,-2.24673 -3.78807,-2.52539 -2.2887,-0.42752 -4.64406,0.683 -6.81853,1.51523 -1.44324,0.55237 -2.60476,1.70154 -4.04061,2.27285 -1.28996,0.51326 -2.69423,1.34881 -4.04061,1.01015 -1.21361,-0.30526 -1.72527,-1.84865 -2.77792,-2.52538 -2.15707,-1.38673 -4.51261,-2.85657 -7.07107,-3.03046 -2.52656,-0.17172 -5.08543,0.83559 -7.3236,2.02031 -1.95289,1.03371 -3.78036,2.48526 -5.05076,4.29314 -0.82703,1.17693 -1.85311,2.6424 -1.51523,4.04061 0.29394,1.21641 1.66473,1.95368 2.77792,2.52539 1.07213,0.55063 3.2833,-0.42097 3.53553,0.75761 0.32768,1.53116 -2.39721,2.05868 -3.78807,2.77792 -0.94582,0.4891 -1.97222,0.89216 -3.03046,1.01015 -1.68156,0.18749 -3.38134,-0.78044 -5.05076,-0.50507 -1.00358,0.16554 -2.05661,0.54554 -2.77792,1.26269 -0.85471,0.84978 -1.68116,2.0892 -1.51523,3.28299 0.10685,0.76871 0.81014,1.44347 1.51523,1.76777 1.30013,0.59797 2.97103,-0.54764 4.29315,0 0.98987,0.41002 2.32621,1.20274 2.27284,2.27284 -0.0596,1.19493 -1.6325,1.92726 -2.77792,2.27285 -1.61986,0.48874 -3.36088,-0.4208 -5.05076,-0.50508 -1.51335,-0.0755 -3.19545,-0.68758 -4.54569,0 -1.02029,0.51956 -1.63615,1.69932 -2.0203,2.77792 -0.50916,1.4296 -0.75671,3.11431 -0.25254,4.54568 0.37625,1.06819 2.51201,1.41841 2.27284,2.52539 -0.31047,1.43697 -2.57257,1.68949 -4.04061,1.76776 -1.67488,0.0893 -3.21607,-0.95844 -4.79822,-1.51523 -1.53358,-0.5397 -2.9414,-1.50436 -4.54569,-1.76776 -1.82937,-0.30035 -3.89529,-0.57171 -5.55584,0.25254 -1.17781,0.58463 -2.39359,1.72215 -2.52538,3.03045 -0.12458,1.23664 0.8447,2.4507 1.76777,3.283 1.14939,1.03636 4.73702,0.28517 4.29315,1.76777 -0.76234,2.54632 -5.19532,-1.87621 -7.82869,-1.51523 -1.86487,0.25564 -3.73263,1.18165 -5.05076,2.52538 -1.37111,1.39773 -1.06708,3.99678 -2.52538,5.3033 -1.52677,1.36787 -4.25583,0.68176 -5.80838,2.0203 -1.51142,1.30309 -3.13074,3.33914 -2.77792,5.30331 0.20023,1.11468 1.45824,1.89364 2.52538,2.27284 1.58839,0.56443 3.40161,0.0965 5.05077,-0.25254 1.14707,-0.24277 2.3165,-1.92647 3.28299,-1.26269 0.62451,0.42891 0.42775,1.64753 0,2.27284 -0.91792,1.34185 -2.95319,1.44051 -4.54568,1.76777 -2.39265,0.4917 -5.00224,-0.50759 -7.32361,0.25254 -2.13016,0.69751 -4.25473,1.96291 -5.55584,3.78807 -1.67141,2.34461 -2.77191,5.49796 -2.27284,8.33376 0.30361,1.72515 1.71707,3.13413 3.03046,4.29315 1.07299,0.94688 2.36059,1.91936 3.78807,2.0203 1.96568,0.13899 3.58525,-2.0203 5.55584,-2.0203 0.98529,0 1.83002,0.74127 2.77792,1.01015 2.39829,0.68028 4.83093,1.48119 7.3236,1.51523 2.39409,0.0327 4.9637,-2.39922 7.07107,-1.26269 0.56426,0.30431 1.05133,1.19792 0.75761,1.76776 -0.90777,1.76116 -3.9174,0.67112 -5.80837,1.2627 -2.52144,0.78882 -5.25517,1.38685 -7.32361,3.03045 -1.70084,1.35149 -1.6854,4.75724 -3.78807,5.3033 -1.71295,0.44485 -3.04839,-2.00795 -4.79823,-2.27284 -2.35413,-0.35637 -4.97809,-0.12492 -7.07106,1.01015 -1.57322,0.85319 -2.49065,2.58763 -3.53554,4.04061 -0.68278,0.94944 -0.60145,2.94477 -1.76776,3.03046 -1.07513,0.079 -1.04868,-2.05839 -2.02031,-2.52538 -2.12439,-1.02103 -4.71793,-0.13531 -7.07107,0 -2.19955,0.12648 -4.62775,-0.28988 -6.56599,0.75761 -1.7352,0.93776 -3.18829,2.66671 -3.78807,4.54569 -0.33376,1.04559 1.02651,2.50479 0.25254,3.283 -1.66634,1.67547 -4.91267,-1.46695 -7.07107,-0.50508 -1.75336,0.78137 -3.13907,2.66749 -3.53553,4.54569 -0.28674,1.35839 0.005,3.08255 1.01015,4.04061 0.93194,0.88862 2.52388,0.51268 3.78807,0.75761 1.34532,0.26065 3.13486,-0.27071 4.04061,0.75762 0.9475,1.07574 -0.12958,2.91149 0.25254,4.29314 0.58211,2.10479 1.30772,4.46631 3.03046,5.80838 1.43352,1.11676 3.50744,1.54024 5.3033,1.26269 1.45526,-0.22491 2.32657,-2.45276 3.78807,-2.27284 1.0634,0.13091 1.31162,1.79953 2.27284,2.27284 1.75168,0.86253 3.88045,1.06659 5.80838,0.75762 2.30495,-0.36939 4.44924,-1.62548 6.31345,-3.03046 1.619,-1.22017 2.0133,-4.5494 4.04061,-4.54569 1.90848,0.003 2.04852,3.50814 3.78808,4.29315 1.99494,0.90025 4.5059,0.73909 6.56599,0 1.74495,-0.62603 2.45879,-3.26729 4.29314,-3.53553 1.71714,-0.2511 3.09716,1.67679 4.79823,2.0203 1.89782,0.38325 3.93006,0.46958 5.80838,0 1.38832,-0.34708 2.56096,-2.75657 3.78807,-2.0203 1.80458,1.08275 -0.94115,4.43114 0,6.31345 0.75292,1.50585 2.47352,2.41508 4.04061,3.03046 1.49696,0.58784 3.43237,-0.34399 4.79822,0.50507 1.60658,0.99871 1.43368,3.78392 3.03046,4.79823 1.71861,1.0917 4.04753,1.06036 6.06092,0.75761 1.82567,-0.27452 3.49728,-1.27527 5.05076,-2.27284 1.50592,-0.96703 2.27435,-3.8241 4.04061,-3.53553 2.30831,0.37712 1.59504,4.75514 3.53553,6.06091 1.48152,0.99693 3.5289,0.95833 5.3033,0.75762 2.33011,-0.26358 4.26044,-2.0973 6.566,-2.52539 1.90359,-0.35345 3.90331,0.34545 5.80837,0 2.12306,-0.38498 4.22286,-1.14272 6.06092,-2.27284 2.43601,-1.49777 3.48623,-5.37909 6.31345,-5.80838 1.74972,-0.26568 3.03188,2.38282 4.79823,2.27285 2.19089,-0.1364 3.84355,-2.16199 5.55584,-3.53554 0.74289,-0.59593 1.11519,-1.72399 2.0203,-2.0203 1.05226,-0.34448 2.1839,0.63879 3.283,0.50507 1.08632,-0.13217 2.23047,-0.51598 3.03045,-1.26269 1.51362,-1.41283 3.14476,-3.51806 2.77792,-5.55584 -0.30601,-1.69989 -3.43862,-1.84404 -3.78807,-3.53553 -0.29744,-1.43973 2.09855,-2.60818 1.76777,-4.04061 -0.49717,-2.15295 -2.89922,-3.78993 -5.05076,-4.29315 -2.02776,-0.47427 -4.53754,2.9351 -6.06092,1.51523 -1.06302,-0.99079 1.34851,-2.96555 0.75761,-4.29315 -0.64585,-1.45105 -2.45527,-2.62214 -4.04061,-2.52538 -2.27018,0.13856 -3.04535,4.02011 -5.3033,4.29315 -1.57015,0.18987 -2.71305,-1.95165 -4.29314,-2.02031 -1.7029,-0.074 -3.21958,2.41059 -4.79823,1.76777 -1.81339,-0.7384 -0.99095,-4.0871 -2.52538,-5.3033 -1.55275,-1.23073 -3.90733,-1.82103 -5.80838,-1.26269 -2.05601,0.60386 -2.45699,5.02446 -4.54568,4.54569 -1.99808,-0.45801 -0.95945,-4.05433 -2.02031,-5.80838 -0.95543,-1.57974 -3.81783,-2.19465 -3.78807,-4.04061 0.0269,-1.66645 2.89773,-1.99574 3.53553,-3.53554 0.74092,-1.78875 -1.85983,-5.27023 0,-5.80837 1.81715,-0.5258 1.41489,3.81412 3.03046,4.79822 1.65975,1.01101 3.99406,1.20163 5.80838,0.50508 1.61247,-0.61905 1.85237,-3.40045 3.53553,-3.78807 1.14258,-0.26313 2.56044,0.33931 3.283,1.26269 0.83649,1.06897 -0.20853,2.88598 0.50507,4.04061 0.63826,1.03273 1.86046,1.69623 3.03046,2.0203 1.70555,0.47241 3.55123,-0.003 5.3033,-0.25254 2.14259,-0.30536 4.47318,-2.65423 6.31345,-1.51522 0.95497,0.59107 0.045,2.41493 0.75762,3.28299 1.17143,1.42696 3.2047,2.29561 5.05076,2.27284 2.33419,-0.0288 4.03729,-2.51246 6.31346,-3.03045 1.7237,-0.39226 3.6701,0.6765 5.3033,0 1.97974,-0.82004 3.36606,-2.75674 4.54568,-4.54569 0.74864,-1.13535 0.33004,-3.12112 1.51523,-3.78807 2.2312,-1.25558 5.31313,2.45996 7.57615,1.26269 1.06536,-0.56363 1.6609,-2.08657 1.51522,-3.283 -0.1303,-1.07012 -2.54676,-1.58465 -2.0203,-2.52538 0.99431,-1.77673 4.37367,-0.38195 6.06091,0.75762 1.43642,0.97016 0.91594,3.90209 2.52539,4.54568 1.31023,0.52394 3.2308,-0.10709 4.04061,-1.26269 1.0639,-1.51819 -1.84461,-4.60605 -0.25254,-5.55584 0.84306,-0.50295 1.54374,1.50479 2.52538,1.51523 2.03591,0.0217 4.12735,-1.36837 5.3033,-3.03046 1.08717,-1.5366 1.40121,-3.7146 1.01015,-5.55583 -0.46568,-2.19254 -4.79713,-3.55437 -3.78807,-5.55584 0.98602,-1.95578 4.82656,1.07852 6.56599,-0.25254 1.12064,-0.85755 1.70181,-2.69957 1.26269,-4.04061 -0.61824,-1.88806 -3.90222,-1.76236 -4.79822,-3.53554 -0.83523,-1.65291 0.57819,-3.79646 0,-5.55584 -0.62026,-1.8874 -1.76236,-3.90222 -3.53554,-4.79822 -2.02857,-1.02505 -6.29634,2.21204 -6.81853,0 -0.56221,-2.38154 4.51421,-1.94959 6.566,-3.283 1.55444,-1.01019 2.46087,-3.8176 4.29314,-3.53553 1.98461,0.30552 1.43926,4.25536 3.283,5.05076 0.86417,0.37281 2.13439,0.18169 2.77792,-0.50507 1.50646,-1.60767 -0.88714,-5.10011 0.75761,-6.56599 0.75411,-0.6721 2.05531,-0.26363 3.03046,0 1.12893,0.3052 1.87065,1.61783 3.03046,1.76776 1.55962,0.20162 3.27209,-0.34018 4.54569,-1.26269 0.98322,-0.71218 0.85529,-2.6889 2.0203,-3.03046 1.41075,-0.41361 2.59242,2.02081 4.04061,1.76777 2.17031,-0.37922 2.75214,-5.36273 4.79823,-4.54569 1.48742,0.59395 -0.60462,3.44528 0.25253,4.79823 0.66517,1.04992 2.04024,1.786 3.283,1.76777 2.52651,-0.0371 4.07267,-3.37818 6.56599,-3.78808 1.69419,-0.27852 3.35559,0.73768 5.05076,1.01016 3.43286,0.55179 6.92828,0.66857 10.35407,1.26269 2.63592,0.45713 7.87397,-0.90712 7.82868,1.76776 -0.0609,3.59858 -7.27518,0.65826 -10.6066,2.02031 -1.96657,0.80403 -4.09152,1.7904 -5.3033,3.53553 -0.8385,1.20756 -1.70265,2.99633 -1.01016,4.29315 0.67757,1.26889 3.85989,0.0882 4.04062,1.51523 0.25821,2.0388 -3.53787,2.14467 -5.05077,3.53553 -1.45203,1.33489 -3.20135,2.66259 -3.78807,4.54569 -0.55316,1.7754 -0.77898,4.21076 0.50508,5.55584 1.70164,1.78249 5.44624,-0.58621 7.3236,1.01015 0.87226,0.7417 1.30404,2.17639 1.01016,3.283 -0.47386,1.78435 -3.22713,2.13076 -4.04062,3.78807 -0.78245,1.59409 -1.44613,3.7974 -0.50507,5.3033 1.14346,1.82978 5.47398,0.19652 6.06091,2.27284 0.52217,1.8472 -3.62891,2.62838 -3.53553,4.54569 0.10718,2.20058 2.52179,3.92768 4.54569,4.79823 2.86118,1.23069 7.56983,-2.56 9.34391,0 0.81934,1.18231 -1.65374,2.60884 -1.51523,4.04061 0.12373,1.27897 0.92912,2.60447 2.0203,3.28299 2.29758,1.42868 5.43427,1.31766 8.08122,0.75762 2.35976,-0.49928 4.09912,-4.49182 6.31346,-3.53554 1.27455,0.55042 0.32613,2.83249 1.01015,4.04061 0.6452,1.13955 1.56808,2.27679 2.77792,2.77792 1.39989,0.57985 4.0098,-1.4173 4.54569,0 0.67497,1.78514 -3.46018,2.07096 -4.29315,3.78807 -0.66235,1.36539 -1.10538,3.29043 -0.25254,4.54569 0.74799,1.10093 3.53221,-0.0435 3.78807,1.26269 0.29838,1.52324 -2.7886,1.6698 -3.53553,3.03046 -0.57287,1.04358 -1.04529,2.47468 -0.50508,3.53553 0.73477,1.44292 2.67393,2.27285 4.29315,2.27285 1.61922,0 2.92839,-3.14423 4.29315,-2.27285 1.34993,0.86191 -1.24264,3.5393 -0.25254,4.79823 1.69425,2.15426 5.37756,1.96418 8.08122,1.51523 2.19395,-0.36431 3.58635,-3.37634 5.80838,-3.283 2.23947,0.0941 3.42954,3.0789 5.55584,3.78807 1.75862,0.58654 3.70246,0.21044 5.55584,0.25254 1.68315,0.0382 3.41744,-0.40833 5.05076,0 1.38832,0.34708 2.61053,1.2071 3.78807,2.02031 0.73632,0.5085 1.5411,1.01205 2.02031,1.76776 0.98457,1.55265 0.45115,3.80401 1.51522,5.3033 1.0138,1.42847 3.624,1.41165 4.29315,3.03046 0.75072,1.81614 -0.72688,3.86372 -1.01015,5.80838 -0.2077,1.42587 0.28228,3.08637 -0.50508,4.29315 -0.90722,1.39049 -2.81665,1.76611 -4.29314,2.52538 -1.47459,0.75829 -2.93252,2.40384 -4.54569,2.0203 -1.16397,-0.27674 -1.17468,-2.3031 -2.27284,-2.77792 -2.24604,-0.97114 -5.09645,-0.50861 -7.32361,0.50508 -1.73364,0.78906 -2.59251,2.80322 -4.04061,4.04061 -0.87046,0.7438 -1.68908,1.66623 -2.77792,2.0203 -1.04069,0.33842 -2.25768,0.38248 -3.283,0 -1.56553,-0.584 -2.18386,-2.8156 -3.78807,-3.28299 -2.20593,-0.64271 -4.72799,0.0568 -6.81853,1.01015 -2.11841,0.96605 -3.53553,3.03046 -5.3033,4.54569 -1.17851,1.01015 -2.03181,2.64559 -3.53553,3.03046 -1.58343,0.40527 -3.19488,-1.3276 -4.79823,-1.01016 -2.19877,0.43533 -4.29406,1.9355 -5.55584,3.78807 -1.0691,1.56968 -0.2367,3.95765 -1.26269,5.55584 -0.97324,1.51601 -3.63095,1.6076 -4.29314,3.283 -0.75286,1.90479 -0.009,4.28409 1.01015,6.06092 0.98107,1.71108 3.3864,2.19234 4.54568,3.78807 0.79932,1.10026 0.52016,2.86107 1.51523,3.78807 1.61675,1.50615 4.12035,2.28987 6.31346,2.0203 2.06355,-0.25364 3.22427,-3.26855 5.3033,-3.28299 0.98167,-0.007 2.0417,0.66096 2.52538,1.51523 0.6636,1.17205 -0.71731,2.90064 0,4.04061 1.24322,1.97577 3.98535,2.8595 6.31345,3.03046 2.5492,0.18719 5.05273,-1.09959 7.32361,-2.27285 1.60052,-0.82692 2.7877,-4.27247 4.29315,-3.28299 1.16016,0.76254 -1.80602,2.90305 -1.01016,4.04061 0.92193,1.31776 3.25733,0.96561 4.79823,0.50507 2.29262,-0.68521 3.73244,-2.99622 5.55584,-4.54568 1.45432,-1.23582 2.41096,-3.47238 4.29315,-3.78808 1.5263,-0.25601 2.74867,1.66909 4.29314,1.76777 2.26199,0.14453 4.51686,-0.79901 6.566,-1.76777 1.30933,-0.619 2.09169,-2.41209 3.53553,-2.52538 2.25185,-0.17668 4.38356,1.51767 6.06091,3.03046 0.81505,0.73508 0.79054,2.27825 1.76777,2.77792 1.27636,0.65261 3.02204,0.41023 4.29315,-0.25254 1.80689,-0.94214 1.95428,-3.90956 3.78807,-4.79822 1.36356,-0.66078 3.1458,0.57985 4.54569,0 1.75977,-0.72892 2.96682,-2.46737 4.04061,-4.04061 0.82877,-1.21426 0.37674,-3.56489 1.76777,-4.04061 0.99802,-0.34131 1.77149,1.83086 2.77792,1.51523 1.61645,-0.50694 2.2985,-2.85181 2.27284,-4.54569 -0.0376,-2.4855 -3.2843,-4.09293 -3.53554,-6.56599 -0.17765,-1.74872 1.6894,-3.3017 1.51523,-5.05077 -0.1418,-1.42401 -0.666,-3.32571 -2.0203,-3.78807 -1.74718,-0.59649 -3.477,3.23812 -5.05076,2.27285 -1.50861,-0.92531 0.17452,-3.58583 -0.25254,-5.3033 -0.38165,-1.53485 -1.01245,-3.07428 -2.02031,-4.29315 -0.72963,-0.88238 -2.97013,-0.89159 -2.77792,-2.02031 0.29507,-1.73278 3.62409,-0.48851 5.05077,-1.51523 1.42176,-1.02318 1.47518,-3.48727 3.03045,-4.29315 1.42009,-0.73583 3.36435,0.70859 4.79823,0 1.61507,-0.79812 3.16265,-2.49565 3.28299,-4.29314 0.0907,-1.35432 -2.55305,-2.28711 -2.0203,-3.53554 0.68113,-1.59615 3.80337,-0.0562 5.05076,-1.26269 1.3215,-1.27818 1.87728,-3.5008 1.51523,-5.3033 -0.21229,-1.05691 -1.87932,-1.45662 -2.02031,-2.52538 -0.19228,-1.4575 1.76224,-2.57049 1.76777,-4.04061 0.002,-0.64109 -0.23532,-1.396 -0.75761,-1.76777 -1.92513,-1.37032 -5.68415,1.40814 -7.07107,-0.50507 -0.81484,-1.12404 0.27208,-2.86473 1.01015,-4.04061 0.69905,-1.11372 2.80283,-1.23032 3.03046,-2.52539 0.20245,-1.1518 -0.81194,-2.35665 -1.76777,-3.03045 -2.24004,-1.5791 -6.97145,0.99071 -8.08122,-1.51523 -0.52031,-1.17489 1.17899,-2.31178 2.02031,-3.283 0.86095,-0.99388 2.75164,-1.24036 3.03046,-2.52538 0.5349,-2.46521 -1.40967,-5.12914 -3.283,-6.81853 -1.66103,-1.49793 -5.40689,-0.22809 -6.31345,-2.27284 -0.62727,-1.4148 1.72806,-2.74604 1.76776,-4.29315 0.0389,-1.51707 -2.49645,-3.13548 -1.51523,-4.29315 0.93958,-1.10854 2.98863,0.11739 4.29315,0.75762 1.12341,0.55135 1.53824,2.35437 2.77792,2.52538 1.49172,0.20578 3.17533,-0.78788 4.04061,-2.02031 0.82797,-1.17929 1.03381,-2.95274 0.50508,-4.29315 -0.52601,-1.33353 -3.42819,-1.35177 -3.283,-2.77792 0.10683,-1.04934 2.27217,-0.58961 2.77792,-1.51522 0.56652,-1.03684 0.29222,-2.4871 -0.25254,-3.53554 -1.35176,-2.60159 -4.04038,-4.61915 -6.81853,-5.55584 -2.39435,-0.80729 -6.95472,2.70172 -7.57614,0.25254 -0.50922,-2.00695 4.81072,-0.8461 5.55584,-2.77792 0.58507,-1.51685 -0.71198,-3.30939 -1.76777,-4.54569 -1.51891,-1.7786 -3.74774,-3.18949 -6.06091,-3.53553 -1.45395,-0.2175 -3.04741,0.22951 -4.29315,1.01015 -1.47053,0.92151 -1.60674,4.48982 -3.283,4.04061 -2.05861,-0.55167 -0.009,-4.43224 -1.01015,-6.31345 -0.81175,-1.52458 -2.06306,-3.62275 -3.78807,-3.53553 -1.7874,0.0904 -2.18409,2.86735 -3.53554,4.04061 -1.74549,1.51533 -3.84525,5.00837 -5.80837,3.78807 -1.80014,-1.11899 1.74751,-4.43923 0.75761,-6.31346 -1.10779,-2.09743 -3.94882,-3.09607 -6.31345,-3.28299 -2.65371,-0.20977 -4.91519,2.45152 -7.57615,2.52538 -0.95942,0.0266 -2.22623,0.0278 -2.77792,-0.75761 -1.21352,-1.72759 1.21145,-4.32392 0.50508,-6.31346 -0.85659,-2.41267 -2.89605,-4.68413 -5.3033,-5.55584 -2.78827,-1.00968 -5.87342,1.02582 -8.83883,1.01016 -2.036,-0.0108 -5.55282,1.21399 -6.06092,-0.75762 z"
       id="path3765"
       inkscape:connector-curvature="0"
       sodipodi:nodetypes="aaaaaaaaaaaaaaaaaaaaaaaaaaaaaaaaaaaaaaaaaaaaaaaaaaaaaaaaaaaaaaaaaaaaaaaaaaaaaaaaaaaaaaaaaaaaaaaaaaaaaaaaaaaaaaaaaaaaaaaaaaaaaaaaaaaaaaaaaaaaaaaaaaaaaaaaaaaaaaaaaaaaaaaaaaaaaaaaaaaaaaaaaaaaaaaaaaaaaaaaaaaaaaaaaaaaaaaaaaaaaaaaaaaaaaaaaaaaaaaaaaaaaaaaaaaaaaaaaaaaaaaaaaaaaaaaaaaaaaaaaaaaaaaaaaaaaaaaaaaaaaaaaaaaaaaaaaaaaaaaaaaaaaaaaaaaaaaaaaaaaaaaaaaaaaaaaaaaaaaaaaaaaaa" />
    <path
       style="color:#000000;fill:none;fill-opacity:1;fill-rule:evenodd;stroke:none;stroke-width:1px;marker:none;visibility:visible;display:inline;overflow:visible;enable-background:accumulate"
       d="m 429.31483,365.71099 -5.55584,8.83883 -6.06091,14.89975 -0.25254,7.82869 10.6066,1.26269"
       id="path3769"
       inkscape:connector-curvature="0" />
    <path
       style="color:#000000;fill:none;stroke:#000000;stroke-width:2.5;stroke-opacity:1;marker:none;visibility:visible;display:inline;overflow:visible;enable-background:accumulate;stroke-miterlimit:4;stroke-dasharray:none"
       d="m 437.64859,416.21862 c 0,0 -5.96658,2.36732 -9.09137,3.03045 -2.56464,0.54425 -5.22944,1.10047 -7.82868,0.75762 -1.42611,-0.18811 -3.1431,-0.39112 -4.04061,-1.51523 -1.1662,-1.46064 -0.68484,-3.68817 -0.75762,-5.55584 -0.17074,-4.38128 0.18265,-8.78524 0.75762,-13.13198 0.54124,-4.09172 1.1703,-8.22325 2.52538,-12.12183 1.48318,-4.26712 3.84701,-8.18396 6.06091,-12.12183 2.09461,-3.72569 6.81853,-10.85914 6.81853,-10.85914"
       id="path3771"
       inkscape:connector-curvature="0"
       sodipodi:nodetypes="caaaaaaac" />
    <path
       style="color:#000000;fill:none;stroke:#000000;stroke-width:2.5;stroke-opacity:1;marker:none;visibility:visible;display:inline;overflow:visible;enable-background:accumulate;stroke-miterlimit:4;stroke-dasharray:none"
       d="m 448.50773,421.77446 c 0,0 -7.29031,0.52584 -10.85914,1.26269 -3.44281,0.71083 -6.77962,1.88012 -10.10152,3.03045 -2.82133,0.97699 -5.95921,1.47305 -8.33376,3.283 -1.33897,1.0206 -2.46022,2.45654 -3.03046,4.04061 -0.59943,1.66516 -0.50975,3.55232 -0.25254,5.3033 0.22056,1.50145 0.35634,3.31337 1.51523,4.29315 1.50072,1.26878 3.84449,1.08166 5.80838,1.01015 3.81535,-0.13892 7.59783,-1.28488 11.11167,-2.77792 2.92361,-1.24225 5.58314,-3.08855 8.08123,-5.05076 3.79189,-2.97847 10.35406,-10.10153 10.35406,-10.10153"
       id="path3773"
       inkscape:connector-curvature="0"
       sodipodi:nodetypes="caaaaaaaaac" />
    <path
       style="color:#000000;fill:none;stroke:#000000;stroke-width:2.5;stroke-miterlimit:4;stroke-opacity:1;stroke-dasharray:none;marker:none;visibility:visible;display:inline;overflow:visible;enable-background:accumulate"
       d="m 464.67017,423.28968 c 0,0 -5.79175,5.99694 -8.83883,8.83884 -3.75266,3.49997 -7.45858,7.09457 -11.61676,10.10152 -2.93632,2.12337 -6.01864,4.11596 -9.34391,5.55584 -4.1807,1.81029 -8.7814,2.43611 -13.13198,3.78808 -2.79628,0.86896 -6.12165,0.85937 -8.33376,2.77792 -1.2798,1.10996 -1.78192,2.92429 -2.27284,4.54568 -0.59001,1.94867 -1.79211,4.30728 -0.75762,6.06092 0.92131,1.56178 3.24924,1.81416 5.05076,2.0203 2.20006,0.25174 4.3653,-0.76407 6.566,-1.01015 4.78023,-0.53451 9.58564,-1.10778 14.39467,-1.01015 3.8106,0.0774 7.60296,0.64659 11.36422,1.26269 3.91058,0.64056 7.65721,2.36743 11.61675,2.52538 3.14045,0.12527 6.22721,-0.85732 9.34391,-1.26269 4.71105,-0.61274 9.53416,-0.61193 14.14214,-1.76777 3.41175,-0.85579 6.74127,-2.14047 9.84898,-3.78807 2.08379,-1.10475 3.96821,-2.56534 5.80838,-4.04061 2.23114,-1.78871 6.31346,-5.80838 6.31346,-5.80838"
       id="path3775"
       inkscape:connector-curvature="0"
       sodipodi:nodetypes="caaaaaaaaaaaaaaaac" />
    <path
       style="color:#000000;fill:none;stroke:#000000;stroke-width:2.5;stroke-miterlimit:4;stroke-opacity:1;stroke-dasharray:none;marker:none;visibility:visible;display:inline;overflow:visible;enable-background:accumulate"
       d="m 510.88465,455.10949 c 0,0 -5.42155,5.75051 -8.5863,8.08122 -3.58153,2.63765 -7.44754,5.01606 -11.61675,6.56599 -4.42563,1.64526 -9.24139,1.94891 -13.8896,2.77792 -4.27814,0.76301 -8.5551,1.59053 -12.87944,2.02031 -3.9406,0.39164 -7.91158,0.63994 -11.8693,0.50507 -3.80917,-0.12981 -7.55302,-1.22458 -11.36421,-1.26269 -4.64873,-0.0465 -9.28255,0.63986 -13.8896,1.26269 -4.23806,0.57295 -8.51602,1.09386 -12.62691,2.27285 -2.17876,0.62486 -4.4857,1.18493 -6.31345,2.52538 -1.92954,1.4151 -3.74125,3.30229 -4.54569,5.55584 -0.6226,1.74415 -0.45274,3.76008 0,5.55583 0.30385,1.20518 0.75108,2.56806 1.76777,3.283 1.39258,0.97927 3.34849,0.78064 5.05076,0.75762 3.84712,-0.052 7.53163,-1.68228 11.36422,-2.02031 3.52186,-0.31062 7.07127,-0.0376 10.6066,0 3.9571,0.0421 7.91347,0.14341 11.86929,0.25254 2.48378,0.0685 4.96659,0.16836 7.44988,0.25254 2.48329,0.0842 7.44987,0.25253 7.44987,0.25253"
       id="path3777"
       inkscape:connector-curvature="0"
       sodipodi:nodetypes="caaaaaaaaaaaaaaaaac" />
    <path
       style="color:#000000;fill:none;stroke:#000000;stroke-width:2.5;stroke-miterlimit:4;stroke-opacity:1;stroke-dasharray:none;marker:none;visibility:visible;display:inline;overflow:visible;enable-background:accumulate"
       d="m 453.55849,501.07143 c 0,0 -12.78267,-1.38829 -19.1929,-1.26269 -4.82381,0.0945 -9.63481,0.72667 -14.39467,1.51523 -3.74727,0.6208 -7.53531,1.24593 -11.11168,2.52538 -2.48123,0.88766 -4.93325,1.99468 -7.07106,3.53553 -1.83495,1.32256 -3.89794,2.72321 -4.79823,4.79823 -0.50286,1.159 -0.56992,2.60513 -0.12627,3.78807 0.30326,0.80861 1.76777,1.89403 1.76777,1.89403"
       id="path3779"
       inkscape:connector-curvature="0"
       sodipodi:nodetypes="caaaaaac" />
    <path
       style="color:#000000;fill:none;stroke:#000000;stroke-width:2.5;stroke-miterlimit:4;stroke-opacity:1;stroke-dasharray:none;marker:none;visibility:visible;display:inline;overflow:visible;enable-background:accumulate"
       d="m 422.74884,366.97368 c 0,0 -4.07862,5.42285 -5.80838,8.33376 -1.73082,2.9127 -3.21039,5.97744 -4.54568,9.09137 -1.2698,2.96122 -2.46176,5.9758 -3.283,9.09137 -1.4039,5.32604 -2.77792,16.28872 -2.77792,16.28872"
       id="path3781"
       inkscape:connector-curvature="0"
       sodipodi:nodetypes="caaac" />
    <path
       style="color:#000000;fill:none;stroke:#000000;stroke-width:2.5;stroke-miterlimit:4;stroke-opacity:1;stroke-dasharray:none;marker:none;visibility:visible;display:inline;overflow:visible;enable-background:accumulate"
       d="m 407.34401,366.97368 c 0,0 -0.63128,8.41226 -0.75761,12.62691 -0.11097,3.70223 -0.12059,7.40974 0,11.11167 0.12634,3.87842 0.75761,11.61676 0.75761,11.61676"
       id="path3783"
       inkscape:connector-curvature="0"
       sodipodi:nodetypes="caac" />
    <path
       style="color:#000000;fill:none;stroke:#000000;stroke-width:2.5;stroke-miterlimit:4;stroke-opacity:1;stroke-dasharray:none;marker:none;visibility:visible;display:inline;overflow:visible;enable-background:accumulate"
       d="m 397.74757,366.21606 c 0,0 0.4609,13.30308 0.25253,19.95052 -0.14018,4.472 -0.80176,8.91518 -1.01015,13.38452 -0.21959,4.70968 0.17827,9.44707 -0.25254,14.14214 -0.28073,3.05941 -0.41219,6.22395 -1.51523,9.09137 -0.89707,2.33199 -1.89462,5.03375 -4.04061,6.31345 -1.95746,1.16728 -4.54938,0.71748 -6.81853,0.50508 -3.90338,-0.36537 -7.75402,-1.50192 -11.36421,-3.03046 -3.16401,-1.33963 -6.02075,-3.33761 -8.83884,-5.3033 -1.81688,-1.26732 -5.17703,-4.16688 -5.17703,-4.16688"
       id="path3785"
       inkscape:connector-curvature="0"
       sodipodi:nodetypes="caaaaaaaac" />
    <path
       style="color:#000000;fill:none;stroke:#000000;stroke-width:2.5;stroke-miterlimit:4;stroke-opacity:1;stroke-dasharray:none;marker:none;visibility:visible;display:inline;overflow:visible;enable-background:accumulate"
       d="m 349.26024,420.51176 c 0,0 5.51937,6.0146 8.83884,8.33376 3.70326,2.58729 7.94817,4.33213 12.12183,6.06092 3.19716,1.32431 6.69273,1.86396 9.84899,3.28299 2.30458,1.03612 4.99094,1.81226 6.56599,3.78808 1.4274,1.79061 2.05528,4.27633 2.0203,6.56599 -0.0557,3.64659 -2.12759,6.98977 -3.53553,10.35406 -1.74401,4.16733 -3.31693,8.53314 -6.06092,12.12183 -1.9193,2.51012 -4.11876,5.18726 -7.07106,6.31346 -2.75279,1.0501 -5.94572,0.55716 -8.83884,0 -3.11598,-0.60008 -6.18968,-1.7887 -8.83883,-3.53554 -2.98158,-1.96604 -5.09291,-5.00931 -7.57615,-7.57614 -3.12646,-3.2317 -9.21764,-9.84899 -9.21764,-9.84899"
       id="path3787"
       inkscape:connector-curvature="0"
       sodipodi:nodetypes="caaaaaaaaaaac" />
    <path
       style="color:#000000;fill:none;stroke:#000000;stroke-width:2.5;stroke-miterlimit:4;stroke-opacity:1;stroke-dasharray:none;marker:none;visibility:visible;display:inline;overflow:visible;enable-background:accumulate"
       d="m 325.7742,460.16025 c 0,0 5.3173,9.04955 8.58629,13.13199 2.64184,3.29923 5.75201,6.20421 8.83884,9.09137 3.2275,3.01873 7.22956,5.22752 10.10152,8.58629 2.30807,2.6993 5.03676,5.57798 5.55584,9.09138 0.5849,3.95887 -1.24169,8.03694 -3.03046,11.61675 -1.87457,3.75151 -4.30621,7.57301 -7.82868,9.84899 -2.73517,1.76728 -9.47018,2.39911 -9.47018,2.39911"
       id="path3789"
       inkscape:connector-curvature="0"
       sodipodi:nodetypes="caaaaaac" />
    <path
       style="color:#000000;fill:none;stroke:#000000;stroke-width:2.5;stroke-miterlimit:4;stroke-opacity:1;stroke-dasharray:none;marker:none;visibility:visible;display:inline;overflow:visible;enable-background:accumulate"
       d="m 352.41706,544.44376 c 0,0 -6.18028,-11.36482 -10.63135,-16.72444 -4.45107,-5.35962 -8.7671,-9.30656 -16.07142,-15 -7.30432,-5.69344 -16.93047,-12.13048 -28.21429,-18.21428 -11.28382,-6.0838 -27.47964,-13.73482 -39.64286,-17.5 -12.16322,-3.76518 -23.17887,-4.99094 -32.5,-6.07143 -9.32113,-1.08049 -23.21428,-1.07143 -23.21428,-1.07143"
       id="path3791"
       inkscape:connector-curvature="0"
       sodipodi:nodetypes="czzzzzc" />
    <path
       style="color:#000000;fill:none;stroke:#000000;stroke-width:2.5;stroke-miterlimit:4;stroke-opacity:1;stroke-dasharray:none;marker:none;visibility:visible;display:inline;overflow:visible;enable-background:accumulate"
       d="m 349.66452,550.87233 c 0,0 -13.02482,-16.08579 -20.91452,-23.15301 -7.8897,-7.06722 -14.87191,-11.42686 -26.25,-17.5 -11.37809,-6.07314 -25.49017,-10.73995 -36.07143,-14.28571 -10.58126,-3.54576 -18.71583,-5.8266 -27.14286,-7.5 -8.42703,-1.6734 -16.16006,-2.62456 -23.21428,-2.85714 -7.05422,-0.23259 -18.92857,1.07143 -18.92857,1.07143"
       id="path3793"
       inkscape:connector-curvature="0"
       sodipodi:nodetypes="czzzzzc" />
    <path
       style="color:#000000;fill:none;stroke:#000000;stroke-width:2.5;stroke-miterlimit:4;stroke-opacity:1;stroke-dasharray:none;marker:none;visibility:visible;display:inline;overflow:visible;enable-background:accumulate"
       d="m 347.85714,553.07647 c 0,0 -8.92461,-11.25902 -15,-15.71429 -6.07539,-4.45527 -14.57928,-7.26904 -21.07143,-10.35714 -6.49215,-3.0881 -11.54377,-5.6991 -17.85714,-8.21429 -6.31337,-2.51519 -12.99867,-5.34736 -20,-6.78571 -7.00133,-1.43835 -14.20149,-2.02829 -21.69905,-1.69906 -7.49756,0.32924 -16.62207,2.71071 -22.94381,3.84192 -6.32174,1.13121 -10.57613,2.36975 -15,2.85714 -4.42387,0.48739 -7.19395,0.69141 -11.42857,0.35714 -6.29392,-1.30693 -10.33632,-1.48754 -15.35714,-5.35714"
       id="path3795"
       inkscape:connector-curvature="0"
       sodipodi:nodetypes="czzzzzzzcc" />
    <path
       style="color:#000000;fill:none;stroke:#000000;stroke-width:2.5;stroke-miterlimit:4;stroke-opacity:1;stroke-dasharray:none;marker:none;visibility:visible;display:inline;overflow:visible;enable-background:accumulate"
       d="m 308.78807,526.35574 c 0,0 -19.14833,-4.61534 -29.14521,-5.06499 -9.99689,-0.44966 -21.29135,0.98737 -30.35715,2.5 -9.0658,1.51263 -13.1974,2.41822 -23.92857,6.07143 -10.73117,3.65321 -23.17824,9.8859 -29.34699,12.35206 -6.16875,2.46616 -6.37333,2.20662 -8.86729,2.2908 -2.49396,0.0842 -5.71429,-1.07143 -5.71429,-1.07143"
       id="path3797"
       inkscape:connector-curvature="0"
       sodipodi:nodetypes="czzzzzc" />
    <path
       style="color:#000000;fill:none;stroke:#000000;stroke-width:2.5;stroke-opacity:1;marker:none;visibility:visible;display:inline;overflow:visible;enable-background:accumulate;stroke-miterlimit:4;stroke-dasharray:none"
       d="m 311.07143,528.43361 c -6.94163,-1.87844 -14.24639,-2.13786 -21.42857,-2.5 -7.72919,-0.38972 -15.5274,-0.53956 -23.21429,0.35714 -7.14385,0.83335 -14.32477,2.15056 -21.07143,4.64286 -7.34405,2.71298 -14.17753,6.76258 -20.71428,11.07143 -5.72801,3.77575 -10.44632,8.92974 -16.07143,12.85714 -4.33571,3.02715 -8.67167,6.22572 -13.57143,8.21429 -2.94341,1.19458 -6.12953,1.7834 -9.28571,2.14285 -1.53768,0.17512 -4.64286,0 -4.64286,0 0,0 -0.37425,6.67552 -0.71429,10 -0.18331,1.79217 -0.71428,5.35715 -0.71428,5.35715 0,0 9.2712,1.73149 13.92857,1.42857 6.71385,-0.43667 13.1966,-2.71614 19.64286,-4.64286 5.34023,-1.59614 10.69324,-3.29458 15.71428,-5.71428 6.16164,-2.96937 11.33446,-7.75304 17.5,-10.71429 6.95876,-3.34222 14.3314,-5.85021 21.78572,-7.85714 7.71136,-2.07614 15.6023,-3.76742 23.57142,-4.28572 4.7578,-0.30944 9.6028,-0.18166 14.28572,0.71429 5.80527,1.11069 11.46935,3.13143 16.78571,5.71428 2.55424,1.24093 7.14286,4.64286 7.14286,4.64286 0,0 -27.45924,1.68605 -41.07143,3.57143 -18.24743,2.52739 -36.2486,6.61294 -54.28571,10.35714 -11.70745,2.43027 -23.40357,4.94281 -35,7.85715 -9.46821,2.37949 -28.21429,7.85714 -28.21429,7.85714 l 3.21429,11.78571 c 0,0 17.53587,-5.75976 26.42857,-8.21428 18.06386,-4.9859 36.35194,-9.13943 54.64286,-13.21429 12.21472,-2.7212 24.39774,-5.72729 36.78571,-7.5 8.51441,-1.2184 17.14226,-1.43581 25.71429,-2.14286 5.83293,-0.48112 17.5,-1.42857 17.5,-1.42857 0,0 4.24606,3.61257 6.78571,4.64286 3.24635,1.31698 6.85755,1.94726 10.35714,1.78571 3.20205,-0.14781 6.34695,-1.21993 9.28572,-2.5 3.08896,-1.34549 8.57143,-5.35714 8.57143,-5.35714 0,0 18.09212,-0.73094 27.14285,-0.71428 11.9101,0.0219 23.82224,0.41565 35.71429,1.07142 13.35602,0.7365 26.68872,1.8969 40,3.21429 12.16716,1.20416 24.4018,2.08423 36.42857,4.28571 3.86259,0.70704 11.42857,2.85715 11.42857,2.85715 l 2.85715,-11.07143 -13.21429,-2.5 c 0,0 3.77245,-4.86798 5.35714,-7.5 1.64768,-2.73665 4.28572,-8.57143 4.28572,-8.57143 0,0 -9.28549,-0.24714 -13.92857,-0.35714 -5.47595,-0.12973 -16.42858,-0.35715 -16.42858,-0.35715 0,0 12.07821,-2.2669 17.85715,-4.28571 3.72068,-1.29978 10.71428,-5 10.71428,-5 l 2.14286,-10.35714 c 0,0 -10.46825,5.61496 -16.07143,7.5 -5.88683,1.98047 -12.02007,3.47152 -18.21428,3.92857 -5.47295,0.40383 -11.02251,-0.12768 -16.42858,-1.07143 -7.20066,-1.25704 -14.17916,-3.63703 -21.07143,-6.07143 -9.25648,-3.26946 -17.70537,-8.72564 -27.14285,-11.42857 -6.49123,-1.85911 -13.24835,-3.12711 -20,-3.21429 -8.04716,-0.10391 -16.25951,0.7744 -23.92857,3.21429 -5.37876,1.71124 -10.72052,4.17672 -15,7.85714 -3.35785,2.8878 -5.56675,6.9237 -7.85715,10.71429 -2.94619,4.87592 -7.5,15.35714 -7.5,15.35714 0,0 -7.14851,-8.08923 -11.07143,-11.78571 -2.70681,-2.55057 -5.40771,-5.18758 -8.57142,-7.14286 -5.30571,-3.27911 -11.12217,-5.87077 -17.14286,-7.5 z"
       id="path3799"
       inkscape:connector-curvature="0"
       sodipodi:nodetypes="aaaaaaaacacaaaaaaaacaaaccaaaacaaacaaaacccacacaccaaaaaaaaacaaa" />
    <path
       style="color:#000000;fill:#ad400c;fill-opacity:1;stroke:none;stroke-width:2.29999995;marker:none;visibility:visible;display:inline;overflow:visible;enable-background:accumulate"
       d="m 284.69911,606.13315 c -3.85798,0.82723 -7.85761,1.07405 -11.61676,2.27284 -2.72798,0.86995 -5.70621,1.6136 -7.82868,3.53554 -1.87299,1.69603 -3.63056,4.04412 -3.78807,6.56599 -0.10818,1.73203 0.61402,3.78136 2.0203,4.79822 1.71081,1.23706 4.20359,0.58021 6.31346,0.50508 3.91435,-0.13938 7.7696,-1.03225 11.61675,-1.76777 1.10311,-0.2109 3.283,-0.75761 3.283,-0.75761 0,0 1.57568,13.81944 2.52538,20.70813 0.90728,6.58099 1.74683,13.17992 3.03046,19.69797 0.90343,4.58744 1.53936,9.29879 3.28299,13.63706 0.87224,2.17019 1.57758,4.78149 3.53553,6.06092 1.84433,1.20519 4.45477,1.38747 6.566,0.75761 2.52009,-0.75184 4.98972,-2.64896 6.06091,-5.05076 1.85282,-4.15435 -0.0987,-9.10645 -0.50507,-13.63706 -0.4786,-5.33572 -1.30746,-10.64046 -2.27285,-15.9099 -1.80333,-9.84326 -6.56599,-29.29443 -6.56599,-29.29443 0,0 5.28546,-0.93766 7.82868,-1.76776 2.61645,-0.854 5.57745,-1.39082 7.57615,-3.283 1.50361,-1.42348 2.88459,-3.48805 2.77792,-5.55584 -0.0565,-1.09611 -0.97343,-2.02051 -1.76777,-2.77792 -1.47353,-1.40503 -3.31951,-2.57222 -5.3033,-3.03046 -3.78092,-0.87336 -7.77823,0.18856 -11.61676,0.75762 -5.13036,0.76058 -10.08111,2.44817 -15.15228,3.53553 z"
       id="path3803-1"
       inkscape:connector-curvature="0"
       sodipodi:nodetypes="aaaaaaacaaaaaaaacaaaaaaa" />
    <path
       style="color:#000000;fill:#ad400c;fill-opacity:1;stroke:none;stroke-width:2.29999995;marker:none;visibility:visible;display:inline;overflow:visible;enable-background:accumulate"
       d="m 240.5691,663.68558 c 0.98154,2.14953 1.29927,4.8455 0.50508,7.07107 -0.70048,1.96295 -2.44499,3.5823 -4.29315,4.54569 -2.03745,1.06207 -4.5717,1.49074 -6.81853,1.01015 -3.5166,-0.7522 -5.63954,-4.79984 -9.09137,-5.80838 -2.42403,-0.70824 -5.27983,-1.05096 -7.57614,0 -2.22504,1.01835 -4.23158,3.17535 -4.79823,5.55584 -0.64298,2.70117 0.70507,5.63584 2.02031,8.08122 1.2982,2.41371 3.25632,4.56975 5.55583,6.06092 3.79692,2.4622 8.40123,3.64156 12.87945,4.29315 5.08417,0.73975 10.52087,1.08958 15.40483,-0.50508 4.26149,-1.39142 8.37791,-4.02327 11.11167,-7.57614 2.77633,-3.60819 3.99607,-8.36005 4.54569,-12.87945 0.41864,-3.44238 0.34642,-7.16268 -1.01015,-10.35406 -1.77522,-4.17625 -5.38416,-7.41169 -8.83884,-10.35407 -3.45111,-2.93934 -7.93923,-4.42045 -11.61675,-7.07106 -3.4888,-2.51459 -7.84744,-4.52736 -9.84899,-8.33376 -1.18121,-2.24635 -1.78798,-5.25674 -0.75761,-7.57615 0.80656,-1.81561 2.83584,-3.22561 4.79822,-3.53553 2.10352,-0.33221 4.30862,0.8101 6.06092,2.02031 2.41239,1.6661 2.73435,6.02182 5.55584,6.81853 1.71661,0.48472 3.88994,-0.41345 5.05076,-1.76777 1.50428,-1.75503 1.69135,-4.54714 1.26269,-6.81853 -0.68011,-3.60375 -2.93696,-7.06258 -5.80838,-9.34391 -3.27233,-2.59985 -7.69026,-3.98523 -11.86929,-4.04061 -3.96682,-0.0526 -7.9082,1.58763 -11.36422,3.53553 -3.42868,1.93248 -6.84136,4.43745 -8.83883,7.82868 -1.57553,2.67487 -2.68132,6.05819 -2.02031,9.09138 0.83169,3.81639 4.33619,6.55519 7.07107,9.34391 2.47622,2.52496 5.67128,4.23827 8.33376,6.56599 2.82354,2.46853 5.40827,5.19783 8.08122,7.82868 2.12112,2.08772 5.07722,3.60616 6.31345,6.31345 z"
       id="path3801-2"
       inkscape:connector-curvature="0"
       sodipodi:nodetypes="aaaaaaaaaaaaaaaaaaaaaaaaaaaaaaaa" />
    <path
       style="color:#000000;fill:#583014;stroke:#000000;stroke-width:2.29999999999999980;stroke-opacity:1;marker:none;visibility:visible;display:inline;overflow:visible;enable-background:accumulate;stroke-miterlimit:4;stroke-dasharray:none;fill-opacity:1"
       d="m 240.66884,664.4636 c 0.98154,2.14953 1.29927,4.8455 0.50508,7.07107 -0.70048,1.96295 -2.44499,3.5823 -4.29315,4.54569 -2.03745,1.06207 -4.5717,1.49074 -6.81853,1.01015 -3.5166,-0.7522 -5.63954,-4.79984 -9.09137,-5.80838 -2.42403,-0.70824 -5.27983,-1.05096 -7.57614,0 -2.22504,1.01835 -4.23158,3.17535 -4.79823,5.55584 -0.64298,2.70117 0.70507,5.63584 2.02031,8.08122 1.2982,2.41371 3.25632,4.56975 5.55583,6.06092 3.79692,2.4622 8.40123,3.64156 12.87945,4.29315 5.08417,0.73975 10.52087,1.08958 15.40483,-0.50508 4.26149,-1.39142 8.37791,-4.02327 11.11167,-7.57614 2.77633,-3.60819 3.99607,-8.36005 4.54569,-12.87945 0.41864,-3.44238 0.34642,-7.16268 -1.01015,-10.35406 -1.77522,-4.17625 -5.38416,-7.41169 -8.83884,-10.35407 -3.45111,-2.93934 -7.93923,-4.42045 -11.61675,-7.07106 -3.4888,-2.51459 -7.84744,-4.52736 -9.84899,-8.33376 -1.18121,-2.24635 -1.78798,-5.25674 -0.75761,-7.57615 0.80656,-1.81561 2.83584,-3.22561 4.79822,-3.53553 2.10352,-0.33221 4.30862,0.8101 6.06092,2.02031 2.41239,1.6661 2.73435,6.02182 5.55584,6.81853 1.71661,0.48472 3.88994,-0.41345 5.05076,-1.76777 1.50428,-1.75503 1.69135,-4.54714 1.26269,-6.81853 -0.68011,-3.60375 -2.93696,-7.06258 -5.80838,-9.34391 -3.27233,-2.59985 -7.69026,-3.98523 -11.86929,-4.04061 -3.96682,-0.0526 -7.9082,1.58763 -11.36422,3.53553 -3.42868,1.93248 -6.84136,4.43745 -8.83883,7.82868 -1.57553,2.67487 -2.68132,6.05819 -2.02031,9.09138 0.83169,3.81639 4.33619,6.55519 7.07107,9.34391 2.47622,2.52496 5.67128,4.23827 8.33376,6.56599 2.82354,2.46853 5.40827,5.19783 8.08122,7.82868 2.12112,2.08772 5.07722,3.60616 6.31345,6.31345 z"
       id="path3801"
       inkscape:connector-curvature="0"
       sodipodi:nodetypes="aaaaaaaaaaaaaaaaaaaaaaaaaaaaaaaa" />
    <path
       style="color:#000000;fill:#583014;stroke:#000000;stroke-width:2.29999999999999980;stroke-opacity:1;marker:none;visibility:visible;display:inline;overflow:visible;enable-background:accumulate;stroke-miterlimit:4;stroke-dasharray:none;fill-opacity:1"
       d="m 285.11556,606.63237 c -3.85798,0.82723 -7.85761,1.07405 -11.61676,2.27284 -2.72798,0.86995 -5.70621,1.6136 -7.82868,3.53554 -1.87299,1.69603 -3.63056,4.04412 -3.78807,6.56599 -0.10818,1.73203 0.61402,3.78136 2.0203,4.79822 1.71081,1.23706 4.20359,0.58021 6.31346,0.50508 3.91435,-0.13938 7.7696,-1.03225 11.61675,-1.76777 1.10311,-0.2109 3.283,-0.75761 3.283,-0.75761 0,0 1.57568,13.81944 2.52538,20.70813 0.90728,6.58099 1.74683,13.17992 3.03046,19.69797 0.90343,4.58744 1.53936,9.29879 3.28299,13.63706 0.87224,2.17019 1.57758,4.78149 3.53553,6.06092 1.84433,1.20519 4.45477,1.38747 6.566,0.75761 2.52009,-0.75184 4.98972,-2.64896 6.06091,-5.05076 1.85282,-4.15435 -0.0987,-9.10645 -0.50507,-13.63706 -0.4786,-5.33572 -1.30746,-10.64046 -2.27285,-15.9099 -1.80333,-9.84326 -6.56599,-29.29443 -6.56599,-29.29443 0,0 5.28546,-0.93766 7.82868,-1.76776 2.61645,-0.854 5.57745,-1.39082 7.57615,-3.283 1.50361,-1.42348 2.88459,-3.48805 2.77792,-5.55584 -0.0565,-1.09611 -0.97343,-2.02051 -1.76777,-2.77792 -1.47353,-1.40503 -3.31951,-2.57222 -5.3033,-3.03046 -3.78092,-0.87336 -7.77823,0.18856 -11.61676,0.75762 -5.13036,0.76058 -10.08111,2.44817 -15.15228,3.53553 z"
       id="path3803"
       inkscape:connector-curvature="0"
       sodipodi:nodetypes="aaaaaaacaaaaaaaacaaaaaaa" />
    <path
       style="color:#000000;fill:#583014;fill-opacity:1;stroke:none;stroke-width:2.29999995000000010;marker:none;visibility:visible;display:inline;overflow:visible;enable-background:accumulate"
       d="m 368.02815,597.91925 c -3.16488,-0.5739 -6.48639,0.18957 -9.59645,1.01016 -3.46283,0.91367 -7.16193,1.92552 -9.84899,4.29315 -3.45534,3.04459 -5.34363,7.60023 -7.07107,11.86929 -2.88738,7.13565 -4.87749,14.78998 -5.3033,22.47589 -0.34712,6.26557 0.62791,12.63208 2.27284,18.68782 1.27489,4.69343 2.72255,9.62537 5.80838,13.38453 2.53349,3.08631 6.01318,5.70926 9.84899,6.81853 3.80413,1.10011 7.99925,0.33423 11.86929,-0.50508 3.72752,-0.8084 7.66851,-1.86096 10.6066,-4.29315 3.47143,-2.87369 5.75907,-7.13797 7.32361,-11.36422 2.35996,-6.37491 2.70896,-13.40569 2.77792,-20.20305 0.0662,-6.5256 -1.08543,-13.02843 -2.27284,-19.44543 -0.80612,-4.35647 -1.17541,-8.98243 -3.283,-12.87945 -1.30376,-2.41071 -3.36782,-4.41048 -5.55584,-6.06091 -2.25411,-1.70028 -4.79798,-3.2843 -7.57614,-3.78808 z"
       id="path3805-7"
       inkscape:connector-curvature="0"
       sodipodi:nodetypes="aaaaaaaaaaaaaaaa" />
    <path
       style="color:#000000;fill:none;stroke:#000000;stroke-width:2.3;stroke-opacity:1;marker:none;visibility:visible;display:inline;overflow:visible;enable-background:accumulate;stroke-miterlimit:4;stroke-dasharray:none"
       d="m 367.94807,598.04607 c -3.16488,-0.5739 -6.48639,0.18957 -9.59645,1.01016 -3.46283,0.91367 -7.16193,1.92552 -9.84899,4.29315 -3.45534,3.04459 -5.34363,7.60023 -7.07107,11.86929 -2.88738,7.13565 -4.87749,14.78998 -5.3033,22.47589 -0.34712,6.26557 0.62791,12.63208 2.27284,18.68782 1.27489,4.69343 2.72255,9.62537 5.80838,13.38453 2.53349,3.08631 6.01318,5.70926 9.84899,6.81853 3.80413,1.10011 7.99925,0.33423 11.86929,-0.50508 3.72752,-0.8084 7.66851,-1.86096 10.6066,-4.29315 3.47143,-2.87369 5.75907,-7.13797 7.32361,-11.36422 2.35996,-6.37491 2.70896,-13.40569 2.77792,-20.20305 0.0662,-6.5256 -1.08543,-13.02843 -2.27284,-19.44543 -0.80612,-4.35647 -1.17541,-8.98243 -3.283,-12.87945 -1.30376,-2.41071 -3.36782,-4.41048 -5.55584,-6.06091 -2.25411,-1.70028 -4.79798,-3.2843 -7.57614,-3.78808 z"
       id="path3805"
       inkscape:connector-curvature="0"
       sodipodi:nodetypes="aaaaaaaaaaaaaaaa" />
    <path
       style="color:#000000;fill:#0c350d;fill-opacity:1;fill-rule:evenodd;stroke:none;stroke-width:1px;marker:none;visibility:visible;display:inline;overflow:visible;enable-background:accumulate"
       d="m 367.19045,613.70344 c -2.10133,-0.90907 -3.08886,-0.79064 -5.3033,-0.50508 -2.21444,0.28556 -5.54003,1.1135 -7.57614,2.77792 -2.03611,1.66442 -2.74266,3.50303 -4.04061,6.56599 -1.29795,3.06296 -2.67643,7.98749 -3.03046,11.8693 -0.35403,3.88181 -0.052,7.49245 0.75761,11.11167 0.8096,3.61922 2.09886,8.11411 4.04061,10.35407 1.94175,2.23996 2.60394,2.73893 5.80838,3.28299 3.20444,0.54406 9.42084,-0.002 12.62691,-2.27284 3.20607,-2.27112 4.07148,-5.24536 5.3033,-9.34391 1.23182,-4.09855 1.42323,-10.13174 1.01015,-14.89975 -0.41308,-4.76801 -1.36613,-10.22149 -3.283,-13.38452 -1.91687,-3.16303 -4.21212,-4.64677 -6.31345,-5.55584 z"
       id="path4056"
       inkscape:connector-curvature="0"
       sodipodi:nodetypes="zzzzzzzzzzzzz" />
    <path
       style="color:#000000;fill:none;stroke:#000000;stroke-width:2.3;stroke-opacity:1;marker:none;visibility:visible;display:inline;overflow:visible;enable-background:accumulate;stroke-miterlimit:4;stroke-dasharray:none"
       d="m 365.59051,612.92916 c -1.84592,-0.33473 -3.7832,0.11056 -5.59715,0.58917 -2.0197,0.5329 -4.1772,1.12307 -5.74443,2.50399 -2.01533,1.77576 -3.11668,4.43285 -4.12421,6.92278 -1.68407,4.16188 -2.8448,8.62627 -3.09315,13.10909 -0.20246,3.6544 0.36622,7.36767 1.32563,10.89969 0.74358,2.73745 1.58793,5.61401 3.38775,7.80655 1.47766,1.80009 3.50719,3.32993 5.74443,3.97691 2.21877,0.64164 4.66557,0.19494 6.92278,-0.29459 2.17408,-0.4715 4.47267,-1.08541 6.18631,-2.50398 2.02472,-1.67609 3.35899,-4.16323 4.27151,-6.6282 1.37645,-3.71817 1.58,-7.81888 1.62022,-11.78345 0.0386,-3.80606 -0.63307,-7.59885 -1.32563,-11.34157 -0.47017,-2.54092 -0.68557,-5.23902 -1.91482,-7.51196 -0.76042,-1.40605 -1.96429,-2.57242 -3.24045,-3.53503 -1.31471,-0.99169 -2.79843,-1.91557 -4.41879,-2.2094 z"
       id="path3805-5"
       inkscape:connector-curvature="0"
       sodipodi:nodetypes="aaaaaaaaaaaaaaaa" />
    <path
       style="color:#000000;fill:#583014;fill-opacity:1;stroke:none;stroke-width:2.29999995000000010;marker:none;visibility:visible;display:inline;overflow:visible;enable-background:accumulate"
       d="m 394.3097,669.93101 c 0.61268,2.69246 2.65776,5.18821 5.05076,6.56599 1.69211,0.97424 3.91784,1.24572 5.80838,0.75762 1.92363,-0.49664 3.71408,-1.87071 4.79822,-3.53554 2.11756,-3.25178 1.76711,-7.55854 2.52538,-11.36421 1.13582,-5.7006 2.0834,-11.43762 3.03046,-17.1726 0.3608,-2.18482 1.01015,-6.56599 1.01015,-6.56599 l 4.54569,0.75762 c 0,0 1.65863,9.26433 2.52538,13.88959 0.90008,4.80315 1.12008,9.79773 2.77792,14.39468 1.00968,2.79969 1.99673,5.93549 4.29315,7.82868 1.70493,1.40556 4.12035,2.28988 6.31345,2.02031 2.06355,-0.25364 4.1325,-1.56492 5.3033,-3.283 1.58998,-2.33322 1.58588,-5.51118 1.51523,-8.33376 -0.10168,-4.06207 -1.64353,-7.9675 -2.77792,-11.86929 -1.56823,-5.39401 -4.61665,-10.37161 -5.55584,-15.9099 -0.26741,-1.5769 -0.35984,-3.23982 0,-4.79823 0.86394,-3.74165 4.43988,-6.56287 5.05077,-10.35406 0.49999,-3.10292 -0.31639,-6.34681 -1.26269,-9.34391 -0.82752,-2.62089 -1.86614,-5.35892 -3.78808,-7.32361 -2.21274,-2.26197 -5.25537,-3.81336 -8.33375,-4.54568 -2.54004,-0.60425 -5.24771,-0.14176 -7.82869,0.25253 -3.10913,0.47498 -6.40457,0.89033 -9.09137,2.52538 -1.37385,0.83606 -2.5128,2.12372 -3.283,3.53554 -1.78933,3.27995 -2.01584,7.20141 -2.77792,10.85914 -1.18273,5.67671 -1.72876,11.46969 -2.77791,17.17259 -0.97975,5.32566 -2.17617,10.60919 -3.283,15.9099 -1.2486,5.9797 -5.14348,11.97382 -3.78807,17.93021 z"
       id="path3833-7"
       inkscape:connector-curvature="0"
       sodipodi:nodetypes="aaaaaaccaaaaaaaaaaaaaaaaaaaa" />
    <path
       style="color:#000000;fill:none;stroke:#000000;stroke-width:2.3;stroke-opacity:1;marker:none;visibility:visible;display:inline;overflow:visible;enable-background:accumulate;stroke-miterlimit:4;stroke-dasharray:none"
       d="m 394.71711,670.27198 c 0.61268,2.69246 2.65776,5.18821 5.05076,6.56599 1.69211,0.97424 3.91784,1.24572 5.80838,0.75762 1.92363,-0.49664 3.71408,-1.87071 4.79822,-3.53554 2.11756,-3.25178 1.76711,-7.55854 2.52538,-11.36421 1.13582,-5.7006 2.0834,-11.43762 3.03046,-17.1726 0.3608,-2.18482 1.01015,-6.56599 1.01015,-6.56599 l 4.54569,0.75762 c 0,0 1.65863,9.26433 2.52538,13.88959 0.90008,4.80315 1.12008,9.79773 2.77792,14.39468 1.00968,2.79969 1.99673,5.93549 4.29315,7.82868 1.70493,1.40556 4.12035,2.28988 6.31345,2.02031 2.06355,-0.25364 4.1325,-1.56492 5.3033,-3.283 1.58998,-2.33322 1.58588,-5.51118 1.51523,-8.33376 -0.10168,-4.06207 -1.64353,-7.9675 -2.77792,-11.86929 -1.56823,-5.39401 -4.61665,-10.37161 -5.55584,-15.9099 -0.26741,-1.5769 -0.35984,-3.23982 0,-4.79823 0.86394,-3.74165 4.43988,-6.56287 5.05077,-10.35406 0.49999,-3.10292 -0.31639,-6.34681 -1.26269,-9.34391 -0.82752,-2.62089 -1.86614,-5.35892 -3.78808,-7.32361 -2.21274,-2.26197 -5.25537,-3.81336 -8.33375,-4.54568 -2.54004,-0.60425 -5.24771,-0.14176 -7.82869,0.25253 -3.10913,0.47498 -6.40457,0.89033 -9.09137,2.52538 -1.37385,0.83606 -2.5128,2.12372 -3.283,3.53554 -1.78933,3.27995 -2.01584,7.20141 -2.77792,10.85914 -1.18273,5.67671 -1.72876,11.46969 -2.77791,17.17259 -0.97975,5.32566 -2.17617,10.60919 -3.283,15.9099 -1.2486,5.9797 -5.14348,11.97382 -3.78807,17.93021 z"
       id="path3833"
       inkscape:connector-curvature="0"
       sodipodi:nodetypes="aaaaaaccaaaaaaaaaaaaaaaaaaaa" />
    <path
       style="color:#000000;fill:none;stroke:#000000;stroke-width:2.29999995;stroke-miterlimit:4;stroke-opacity:1;stroke-dasharray:none;marker:none;visibility:visible;display:inline;overflow:visible;enable-background:accumulate"
       d="m 417.193,627.08797 c 1.39396,1.70635 4.08677,1.55582 6.06092,1.01015 2.12975,-0.58868 3.98348,-2.3584 5.05076,-4.29315 1.15004,-2.08478 1.47361,-4.73565 1.01015,-7.07106 -0.41872,-2.10996 -1.39374,-4.52727 -3.283,-5.55584 -1.84979,-1.00708 -4.63266,-1.01667 -6.31345,0.25254 -1.08987,0.82299 -0.92291,2.57395 -1.27802,3.89267 -0.41585,1.54429 -0.79974,3.10627 -0.99482,4.69362 -0.28768,2.34092 -1.6465,5.36472 -0.25254,7.07107 z"
       id="path3835"
       inkscape:connector-curvature="0"
       sodipodi:nodetypes="zaaaaaaaz" />
    <path
       style="color:#000000;fill:#583014;stroke:none;stroke-width:2.29999995000000010;stroke-miterlimit:4;stroke-opacity:1;stroke-dasharray:none;marker:none;visibility:visible;display:inline;overflow:visible;enable-background:accumulate;fill-opacity:1"
       d="m 471.31738,610.78485 c -1.57426,-0.26966 -3.24701,0.58546 -4.54569,1.51522 -2.14926,1.53872 -3.90446,3.82586 -4.79822,6.31346 -0.71215,1.98212 -0.99428,4.34222 -0.25254,6.31345 0.81781,2.17342 3.29506,3.28072 4.79823,5.05076 2.25591,2.65642 4.4025,5.41932 6.31345,8.33376 1.69469,2.58461 4.28678,5.00143 4.54569,8.08122 0.29221,3.47586 -2.07543,6.68117 -3.53554,9.84899 -1.42045,3.08178 -3.13778,6.03606 -5.05076,8.83884 -1.88988,2.76894 -4.9321,4.77409 -6.31345,7.82868 -1.02073,2.25715 -2.18734,5.02541 -1.2627,7.3236 0.74155,1.84312 3.00076,2.68932 4.79823,3.53554 2.82619,1.33052 6.00288,2.74069 9.09137,2.27284 2.72634,-0.41299 5.37648,-2.11788 7.07107,-4.29315 2.81457,-3.61293 2.66225,-8.76447 4.04061,-13.13198 1.81068,-5.73738 3.57311,-11.49237 5.55584,-17.17259 1.42217,-4.0743 2.59772,-8.27113 4.54569,-12.12183 2.08682,-4.12517 4.8663,-7.87128 7.57614,-11.61676 1.57975,-2.1835 4.43546,-3.68958 5.05076,-6.31345 0.45236,-1.92902 0.0271,-4.30431 -1.26269,-5.80838 -1.52647,-1.7801 -4.22217,-2.59875 -6.56599,-2.52538 -2.22131,0.0695 -4.41252,1.28733 -6.06091,2.77792 -2.09885,1.89794 -2.89041,4.86602 -4.29315,7.3236 -1.71851,3.0108 -5.05077,9.09138 -5.05077,9.09138 0,0 -3.22365,-6.81003 -5.05076,-10.10153 -1.48548,-2.67605 -2.75758,-5.54752 -4.79822,-7.82868 -1.27983,-1.43068 -2.65366,-3.21144 -4.54569,-3.53553 z"
       id="path3845-1"
       inkscape:connector-curvature="0"
       sodipodi:nodetypes="aaaaaaaaaaaaaaaaaaaaaaacaaa" />
    <path
       style="color:#000000;fill:none;stroke:#000000;stroke-width:2.3;stroke-opacity:1;marker:none;visibility:visible;display:inline;overflow:visible;enable-background:accumulate;stroke-miterlimit:4;stroke-dasharray:none"
       d="m 470.22601,611.4306 c -1.57426,-0.26966 -3.24701,0.58546 -4.54569,1.51522 -2.14926,1.53872 -3.90446,3.82586 -4.79822,6.31346 -0.71215,1.98212 -0.99428,4.34222 -0.25254,6.31345 0.81781,2.17342 3.29506,3.28072 4.79823,5.05076 2.25591,2.65642 4.4025,5.41932 6.31345,8.33376 1.69469,2.58461 4.28678,5.00143 4.54569,8.08122 0.29221,3.47586 -2.07543,6.68117 -3.53554,9.84899 -1.42045,3.08178 -3.13778,6.03606 -5.05076,8.83884 -1.88988,2.76894 -4.9321,4.77409 -6.31345,7.82868 -1.02073,2.25715 -2.18734,5.02541 -1.2627,7.3236 0.74155,1.84312 3.00076,2.68932 4.79823,3.53554 2.82619,1.33052 6.00288,2.74069 9.09137,2.27284 2.72634,-0.41299 5.37648,-2.11788 7.07107,-4.29315 2.81457,-3.61293 2.66225,-8.76447 4.04061,-13.13198 1.81068,-5.73738 3.57311,-11.49237 5.55584,-17.17259 1.42217,-4.0743 2.59772,-8.27113 4.54569,-12.12183 2.08682,-4.12517 4.8663,-7.87128 7.57614,-11.61676 1.57975,-2.1835 4.43546,-3.68958 5.05076,-6.31345 0.45236,-1.92902 0.0271,-4.30431 -1.26269,-5.80838 -1.52647,-1.7801 -4.22217,-2.59875 -6.56599,-2.52538 -2.22131,0.0695 -4.41252,1.28733 -6.06091,2.77792 -2.09885,1.89794 -2.89041,4.86602 -4.29315,7.3236 -1.71851,3.0108 -5.05077,9.09138 -5.05077,9.09138 0,0 -3.22365,-6.81003 -5.05076,-10.10153 -1.48548,-2.67605 -2.75758,-5.54752 -4.79822,-7.82868 -1.27983,-1.43068 -2.65366,-3.21144 -4.54569,-3.53553 z"
       id="path3845"
       inkscape:connector-curvature="0"
       sodipodi:nodetypes="aaaaaaaaaaaaaaaaaaaaaaacaaa" />
    <path
       style="color:#000000;fill:none;stroke:#000000;stroke-width:2.5;stroke-miterlimit:4;stroke-opacity:1;stroke-dasharray:none;marker:none;visibility:visible;display:inline;overflow:visible;enable-background:accumulate"
       d="m 419.64286,309.50504 c 0,0 -18.9869,-3.06458 -28.57143,-3.57143 -12.72254,-0.67279 -25.52628,-0.43906 -38.21429,0.71429 -15.3784,1.39791 -30.7424,3.7195 -45.71428,7.5 -14.16295,3.57624 -28.36871,7.7421 -41.42857,14.28571 -13.25487,6.64132 -25.3372,15.58033 -36.78572,25 -12.15599,10.00177 -24.14657,20.60575 -33.57143,33.21429 -10.84236,14.50486 -18.98674,31.04381 -25.71428,47.85714 -6.00835,15.01594 -10.63846,30.76522 -12.85715,46.78571 -2.31908,16.74536 -1.69216,33.8619 -0.35714,50.71429 0.97216,12.27191 3.71389,24.34607 6.07143,36.42857 3.13064,16.04471 5.64408,32.31602 10.71429,47.85714 4.34897,13.33039 9.5086,26.58575 16.78571,38.57143 5.12853,8.44689 18.66071,23.03571 18.66071,23.03571"
       id="path3847"
       inkscape:connector-curvature="0"
       sodipodi:nodetypes="caaaaaaaaaaaac" />
    <path
       style="color:#000000;fill:none;stroke:#000000;stroke-width:2.5;stroke-miterlimit:4;stroke-opacity:1;stroke-dasharray:none;marker:none;visibility:visible;display:inline;overflow:visible;enable-background:accumulate"
       d="m 229.73215,695.30861 c 0,0 19.09603,14.35978 29.91071,19.19643 13.4203,6.00196 28.06489,9.00079 42.5,11.78571 13.76054,2.65478 27.77159,4.57524 41.78571,4.64286 17.7091,0.0855 35.67756,-1.05811 52.85714,-5.35714 15.76476,-3.94499 30.76836,-10.8522 45.10275,-18.5083 10.62051,-5.67249 29.98019,-20.14794 29.98019,-20.14794"
       id="path3849"
       inkscape:connector-curvature="0"
       sodipodi:nodetypes="caaaaac" />
    <path
       style="color:#000000;fill:none;stroke:#000000;stroke-width:2.5;stroke-miterlimit:4;stroke-opacity:1;stroke-dasharray:none;marker:none;visibility:visible;display:inline;overflow:visible;enable-background:accumulate"
       d="m 483.27557,677.52991 c 0,0 15.28971,-16.88327 21.72443,-26.23916 7.27997,-10.58484 13.71867,-21.82861 18.92857,-33.57143 5.19085,-11.69988 9.26033,-23.95767 12.14286,-36.42857 2.83995,-12.28668 4.09821,-24.92166 5,-37.5 0.8038,-11.21164 0.35714,-33.71936 0.35714,-33.71936"
       id="path3851"
       inkscape:connector-curvature="0"
       sodipodi:nodetypes="caaaac" />
    <path
       style="color:#000000;fill:#0c350d;stroke:#000000;stroke-width:2.29999995000000010;stroke-miterlimit:4;stroke-opacity:1;stroke-dasharray:none;marker:none;visibility:visible;display:inline;overflow:visible;enable-background:accumulate;fill-opacity:1"
       d="m 417.44987,626.86614 c 1.39396,1.70635 4.08677,1.55582 6.06092,1.01015 2.12975,-0.58868 3.98348,-2.3584 5.05076,-4.29315 1.15004,-2.08478 1.47361,-4.73565 1.01015,-7.07106 -0.41872,-2.10996 -1.39374,-4.52727 -3.283,-5.55584 -1.84979,-1.00708 -4.63266,-1.01667 -6.31345,0.25254 -1.08987,0.82299 -0.92291,2.57395 -1.27802,3.89267 -0.41585,1.54429 -0.79974,3.10627 -0.99482,4.69362 -0.28768,2.34092 -1.6465,5.36472 -0.25254,7.07107 z"
       id="path3835-3"
       inkscape:connector-curvature="0"
       sodipodi:nodetypes="zaaaaaaaz" />
  </g>
</svg>
